<svg width="692" height="777" fill="none" xmlns="http://www.w3.org/2000/svg"><path d="M630.49 391.71a284.701 284.701 0 0 0-569.4 0 284.699 284.699 0 0 0 284.7 284.7 284.699 284.699 0 0 0 284.7-284.7Z" stroke="#BDA180" stroke-width="2"/><path d="M629.001 353.111a.906.906 0 0 0 .437-.167c.134-.096.252-.227.346-.388a1.74 1.74 0 0 0 .202-.548c.04-.202.049-.414.028-.626a2.135 2.135 0 0 0-.151-.608 1.742 1.742 0 0 0-.307-.498 1.24 1.24 0 0 0-.415-.311.914.914 0 0 0-.462-.078.898.898 0 0 0-.437.168 1.23 1.23 0 0 0-.346.387 1.749 1.749 0 0 0-.202.548c-.04.202-.049.415-.028.626.021.212.072.419.151.608.078.19.182.359.306.498s.266.244.416.311a.914.914 0 0 0 .462.078ZM396.959 131.334a.663.663 0 0 0-.561-.746l-2.712-.386a.66.66 0 0 0-.747.56l-.518 3.644a.658.658 0 0 0 .56.746l2.713.386a.66.66 0 0 0 .746-.56l.519-3.644ZM377.38 137.15l.81-5.61a.533.533 0 0 0-.43-.6l-2.99-.52c-.46-.08-.713.113-.76.58l-.59 5.77a.575.575 0 0 1-.236.412.581.581 0 0 1-.464.098l-2.3-.49c-.427-.087-.663.087-.71.52l-.27 2.62c-.06.547.187.82.74.82h2.07a.508.508 0 0 1 .391.175.534.534 0 0 1 .129.415c-.68 5.753-1.373 11.403-2.08 16.95-.63 4.97 2.37 6.61 6.87 6.15a.692.692 0 0 0 .4-.188.719.719 0 0 0 .21-.392l.34-2.14a.893.893 0 0 0-.238-.755.865.865 0 0 0-.742-.255c-1.26.187-2.1.013-2.52-.52-.26-.327-.327-.973-.2-1.94.707-5.447 1.37-10.91 1.99-16.39.04-.32.217-.457.53-.41l2.88.43c.453.073.713-.117.78-.57l.34-2.35c.073-.48-.133-.743-.62-.79l-2.73-.25a.667.667 0 0 1-.584-.498.692.692 0 0 1-.016-.272ZM287.458 132.712a.551.551 0 0 0-.669-.396l-2.906.746a.548.548 0 0 0-.396.67l.995 3.874a.551.551 0 0 0 .669.396l2.906-.746a.548.548 0 0 0 .396-.67l-.995-3.874ZM356.87 158.21c-.24-5.08-.27-10.18-.09-15.3.12-3.29-.77-5.18-3.69-6.43-5.8-2.48-15.29-1.39-16.28 6.37-.054.407.123.633.53.68l2.35.28c.406.053.676-.117.81-.51 1.38-4.08 4.333-5.407 8.86-3.98 3.153.993 3.993 3.1 2.52 6.32a1.496 1.496 0 0 1-1.19.87c-3.93.47-10.31.9-12.98 3.5-3.22 3.15-2.54 10.46 2.13 11.93 4.606 1.447 8.656.577 12.15-2.61a.463.463 0 0 1 .415-.11.454.454 0 0 1 .325.28c1.146 2.833 3.11 3.82 5.89 2.96.424-.125.827-.42 1.12-.82.294-.401.453-.874.444-1.316-.009-.441-.187-.815-.493-1.039-.307-.224-.717-.28-1.141-.155-.394.107-.72.03-.98-.23-.467-.453-.7-.683-.7-.69ZM272 150.25l2.96-.821c.393-.106.523-.353.39-.739l-.85-2.52c-.14-.414-.41-.54-.81-.38l-2.27.88c-.74.286-1.193.039-1.36-.741l-.93-4.339a.895.895 0 0 1 .068-.581.87.87 0 0 1 .412-.409l2.5-1.23c.313-.154.407-.39.28-.71l-.7-1.89a.696.696 0 0 0-.301-.352.712.712 0 0 0-.459-.088c-6.28.96-7.08 5.98-4.42 10.88a.748.748 0 0 1-.183.938.739.739 0 0 1-.307.152l-2.14.48a.677.677 0 0 0-.453.339.706.706 0 0 0-.047.571l.95 2.68a.622.622 0 0 0 .773.388.62.62 0 0 0 .267-.168c.727-.767 1.377-.967 1.95-.6.36.233.676.796.95 1.689a6615.45 6615.45 0 0 1 5.57 18.261c.12.386.373.516.76.39l2.73-.89c.386-.127.52-.387.4-.78l-6.09-19.74a.534.534 0 0 1 .173-.574.528.528 0 0 1 .187-.096ZM311.26 138.12c-11.01 3.33-9.52 23.67 1.62 26.13 6.99 1.54 12.72-2.7 13.02-10.1.013-.427-.19-.62-.61-.58l-2.69.25a.86.86 0 0 0-.76.74c-.414 3.44-2.03 5.453-4.85 6.04-9.83 2.04-12.1-16.78-3.85-19.22 3.846-1.14 6.36.196 7.54 4.01.093.286.29.413.59.38l2.98-.33a.676.676 0 0 0 .589-.596.667.667 0 0 0-.039-.294c-2.34-6.307-6.854-8.45-13.54-6.43ZM395.49 141.006a.539.539 0 0 0-.448-.618l-2.962-.475a.539.539 0 0 0-.619.448l-3.871 24.172a.539.539 0 0 0 .448.618l2.962.475a.543.543 0 0 0 .618-.448l3.872-24.172ZM289.703 142.299a.348.348 0 0 0-.156-.218.346.346 0 0 0-.264-.045l-3.293.761a.355.355 0 0 0-.219.155.346.346 0 0 0-.044.264l5.57 24.126a.35.35 0 0 0 .42.262l3.293-.76a.355.355 0 0 0 .262-.42l-5.569-24.125ZM248.818 144.894a.463.463 0 0 0-.244-.243.462.462 0 0 0-.345.001l-2.935 1.222a.437.437 0 0 0-.243.244.44.44 0 0 0 0 .344l1.591 3.822a.452.452 0 0 0 .588.243l2.936-1.222a.452.452 0 0 0 .243-.589l-1.591-3.822ZM428.423 159.823a10.426 10.426 0 0 0-3.376-11.075 10.424 10.424 0 0 0-3.588-1.912l-1.666-.503a10.42 10.42 0 0 0-12.987 6.964l-1.768 5.859a10.407 10.407 0 0 0 .792 7.935 10.413 10.413 0 0 0 6.171 5.052l1.666.503a10.42 10.42 0 0 0 12.987-6.964l1.769-5.859ZM252.572 154.197a.6.6 0 0 0-.124-.19.596.596 0 0 0-.409-.173.58.58 0 0 0-.222.042l-2.689 1.087a.576.576 0 0 0-.321.755l9.141 22.623a.572.572 0 0 0 .755.32l2.689-1.086a.583.583 0 0 0 .32-.755l-9.14-22.623ZM244.03 181.48l-8.43-15.82a.573.573 0 0 1 .075-.656.578.578 0 0 1 .185-.144l2.45-1.17c.447-.213.554-.537.32-.97l-1.19-2.23a.58.58 0 0 0-.79-.23l-2.44 1.41a.614.614 0 0 1-.685-.054.605.605 0 0 1-.155-.186l-2.54-4.72c-.28-.527-.69-.657-1.23-.39l-2.18 1.1c-.42.213-.52.527-.3.94l2.66 4.97a.613.613 0 0 1 .038.477.577.577 0 0 1-.318.343l-1.95.85a.684.684 0 0 0-.415.679.69.69 0 0 0 .075.271l1.2 2.38c.214.42.514.493.9.22l1.74-1.24a.637.637 0 0 1 .508-.102.625.625 0 0 1 .412.312c2.874 5.387 5.744 10.773 8.61 16.16 1.88 3.52 6.21 2.07 8.46-.23.267-.28.307-.59.12-.93l-.95-1.74c-.24-.433-.573-.523-1-.27l-2.17 1.26a.733.733 0 0 1-1.01-.29ZM447.21 159.43l.59-1.34a.771.771 0 0 0-.36-1.01l-2.29-1.11a.695.695 0 0 0-.94.34l-9.92 22.23c-.14.314-.06.544.24.69l2.64 1.33a.583.583 0 0 0 .465.027.565.565 0 0 0 .335-.317c2.46-5.79 6.33-19.8 14.43-17.68 4.28 1.13 4.73 4.57 3.06 8.31-2.1 4.687-4.203 9.4-6.31 14.14a.635.635 0 0 0 .123.707.63.63 0 0 0 .207.143l2.46 1.11c.373.167.647.067.82-.3a490.445 490.445 0 0 0 7.7-17.38c.75-1.78.74-4.22-.34-5.63-3.273-4.313-7.453-5.6-12.54-3.86-.433.147-.557.014-.37-.4ZM213.62 176.32l-1.36-2.15a.554.554 0 0 0-.342-.249.56.56 0 0 0-.418.069l-2.37 1.47c-.4.253-.47.58-.21.98l13.15 20.17c.234.353.53.423.89.21l2.5-1.51c.3-.18.354-.414.16-.7-3.68-5.54-13.92-16.47-5.27-22.1.307-.207.357-.464.15-.77l-1.79-2.67c-.193-.294-.436-.347-.73-.16-2.666 1.653-3.913 4.056-3.74 7.21.054.88-.153.946-.62.2Z" stroke="#BDA180" stroke-width="2"/><path d="M562.98 391.72a217.2 217.2 0 1 0-434.4-.001 217.2 217.2 0 0 0 434.4.001Z" stroke="#BDA180" stroke-width="2"/><path d="M501.2 176.559c-5.97-1.72-13.67 3.21-12.37 10.18.98 5.27 12.93 14.5 9.13 19.34-5.81 7.38-19.99-3.79-14.14-12.22a.652.652 0 0 0-.13-.88l-2.48-1.89c-.307-.24-.574-.2-.8.12-9.53 13.64 13.62 28.99 21.51 17.47 7.57-11.08-13.73-20.11-7.35-26.64 5.5-5.63 16.86 3.54 12.74 11.07-.174.314-.12.587.16.82l2.33 1.9c.326.267.613.227.86-.12 5.62-8.12-2.19-17.05-9.46-19.15ZM192.16 205.461l13.68-10.64c.287-.22.327-.484.12-.79-3.97-5.79-10.66-9.65-17.24-4.79-9.53 7.04-2.88 22.23 7.12 24.3 8.43 1.74 16.08-7.6 12.37-15.62-.18-.387-.433-.444-.76-.17l-2.36 1.98c-.28.233-.363.523-.25.87 2.65 8.37-7.74 12.27-12.79 5.72-.247-.32-.21-.607.11-.86ZM172.22 234.511c-10.29 4.51-26.62-12.95-17.54-22.31 3.14-3.234 6.943-3.86 11.41-1.88a.836.836 0 0 0 .517.053.816.816 0 0 0 .443-.263l2.36-2.72c.227-.26.187-.467-.12-.62-8.7-4.31-19.91.29-21.51 10.22-2.51 15.52 21.37 32.39 32.58 15.61 3.76-5.62 2.16-12.08-1.23-17.44-.24-.374-.513-.404-.82-.09l-2.49 2.49a.717.717 0 0 0-.213.459.74.74 0 0 0 .143.491c4.27 5.81 3.1 13.1-3.53 16ZM513.47 218.829a.522.522 0 0 1 .74 0l12.35 12.37c.24.24.49.25.75.03 5.45-4.61 8.31-12.07 2.52-17.84-11.85-11.8-32.41 9.57-17.9 20.22 3.773 2.766 7.653 2.893 11.64.38.367-.227.403-.5.11-.82l-1.89-2.05c-.287-.314-.623-.384-1.01-.21-8.22 3.72-13.1-6.03-7.31-12.08ZM545.67 237.64l2.01-1.77a.672.672 0 0 0 .08-.93l-1.74-2.11c-.28-.34-.594-.37-.94-.09l-18.8 15.3c-.294.234-.324.497-.09.79l1.82 2.33a.57.57 0 0 0 .616.198.599.599 0 0 0 .204-.108c3.213-2.713 6.49-5.36 9.83-7.94 4.09-3.15 7.96-3.95 11.41.41a.599.599 0 0 0 .84.09l2.5-2.05c.266-.22.3-.47.1-.75-1.887-2.606-4.404-3.54-7.55-2.8-.847.194-.944.004-.29-.57ZM152.407 266.884a.618.618 0 0 0-.182-.857l-28.699-18.638a.63.63 0 0 0-.467-.086.625.625 0 0 0-.391.268l-1.536 2.366a.62.62 0 0 0 .183.857l28.699 18.638a.61.61 0 0 0 .689-.009.623.623 0 0 0 .169-.174l1.535-2.365ZM568.72 266.729a.316.316 0 0 0-.136-.125.316.316 0 0 0-.184-.025l-20.54 3.8a.311.311 0 0 1-.327-.151.307.307 0 0 1 .037-.359l13.94-15.31a.315.315 0 0 0 .077-.18.312.312 0 0 0-.047-.19l-2.07-3.28a.302.302 0 0 0-.101-.097.314.314 0 0 0-.389.057l-17.16 19.98a.314.314 0 0 0-.03.36l2.02 3.42a.302.302 0 0 0 .137.125.304.304 0 0 0 .183.025l26.34-4.2a.313.313 0 0 0 .137-.057.318.318 0 0 0 .124-.26.315.315 0 0 0-.041-.143l-1.97-3.39ZM140.519 282.759c3.167.313 4.984-1.14 5.45-4.36.067-.427-.103-.707-.51-.84l-1.73-.56c-.46-.147-.763.007-.91.46-.386 1.2-1.07 1.537-2.05 1.01-4.926-2.62-9.856-5.233-14.79-7.84-6.11-3.23-16.79 12.97-7.45 18.56.24.14.437.097.59-.13l1.44-2.16c.174-.247.18-.5.02-.76-.59-.96-1.58-1.62-1.94-2.52-1.3-3.2 2.29-7.39 4.82-8.9.387-.227.767-.22 1.14.02l3.42 2.19a.78.78 0 0 1 .31.93c-2.19 5.95-6.14 13.15-1.04 17.13 8.55 6.66 14.37-4.39 12.77-11.72-.08-.38.074-.55.46-.51ZM585.224 276.933a.473.473 0 0 0-.629-.215l-3.699 1.812a.465.465 0 0 0-.216.629l1.355 2.766a.47.47 0 0 0 .629.215l3.7-1.812a.48.48 0 0 0 .238-.27.467.467 0 0 0-.023-.359l-1.355-2.766ZM576.28 281.207a.548.548 0 0 0-.731-.264l-22.078 10.342a.549.549 0 0 0-.264.731l1.272 2.717a.548.548 0 0 0 .732.264l22.077-10.342a.548.548 0 0 0 .265-.731l-1.273-2.717ZM130.775 310.019a.607.607 0 0 0-.343-.776l-31.963-12.334a.599.599 0 0 0-.776.344l-1.03 2.668a.602.602 0 0 0 .344.776l31.963 12.334a.599.599 0 0 0 .776-.344l1.029-2.668ZM561.66 309.051c-2.1 7.03 4.23 15.12 12.29 13 .32-.087.426-.287.32-.6l-.82-2.48c-.127-.38-.39-.564-.79-.55-4.327.106-6.777-1.69-7.35-5.39-1.29-8.41 16.19-13.57 19.18-4.55 1.006 3.046.013 5.32-2.98 6.82-.367.18-.487.466-.36.86l.89 2.81c.12.38.36.483.72.31 10.21-4.87 5.76-18.78-4.26-19.76-6.62-.64-14.8 2.71-16.84 9.53ZM122.2 328.34c2.853-.694 4.217-2.427 4.09-5.2a1.981 1.981 0 0 0-.552-1.224 1.957 1.957 0 0 0-1.191-.605 1.546 1.546 0 0 0-1.181.343c-.318.27-.506.665-.526 1.106-.033 1.286-.917 1.703-2.65 1.25a429.718 429.718 0 0 0-14.88-3.6c-7.54-1.69-12.84 15.8-3.06 19.72a.739.739 0 0 0 .852-.23.72.72 0 0 0 .138-.28l.59-2.46c.087-.34-.03-.58-.35-.72-4.97-2.12-2.99-8.27-.31-11.26.219-.238.515-.385.83-.41 1.78-.154 3.333.326 4.66 1.44.129.111.23.252.293.41.062.159.085.33.067.5-.333 3.133-.55 6.253-.65 9.36-.43 13.3 21.48 8.21 13.47-7.36-.213-.414-.093-.674.36-.78ZM580.18 335.44l4.17 16.73a.729.729 0 0 0 .315.436.709.709 0 0 0 .525.094c6.17-1.24 13.15-5.84 11.57-13.21-2.37-11.06-15.55-12.3-23.24-6.16-7.61 6.07-3.77 19.99 6.97 19.84.42-.007.577-.217.47-.63l-.73-2.8c-.1-.394-.35-.617-.75-.67-8.78-1.25-7.96-12.25.02-14.05.36-.08.587.06.68.42ZM95.46 376.58a.472.472 0 0 1-.51.43l-14.13-1.24a.469.469 0 0 0-.51.41l-.44 3.55a.472.472 0 0 0 .43.52l34.42 3.06a.485.485 0 0 0 .345-.109.469.469 0 0 0 .165-.321l.34-3.6a.479.479 0 0 0-.109-.345.474.474 0 0 0-.321-.165l-15.21-1.33a.477.477 0 0 1-.41-.327.47.47 0 0 1-.02-.183l1.5-17.14a.467.467 0 0 1 .51-.43l15.24 1.26a.473.473 0 0 0 .5-.42l.34-3.61a.479.479 0 0 0-.109-.345.474.474 0 0 0-.321-.165l-34.32-2.97a.468.468 0 0 0-.51.4l-.48 3.61a.473.473 0 0 0 .24.474.472.472 0 0 0 .18.056l14.3 1.23a.476.476 0 0 1 .321.165.466.466 0 0 1 .109.345l-1.54 17.19ZM580.8 364.641c-9.13-.88-8.97 19.76 1.8 20 7.79.17 6.9-10.1 8.47-14.92.6-1.85 2.5-2.91 4.14-1.66 2.85 2.18 4.2 9.14-.58 10.39-.333.093-.483.313-.45.66l.33 2.99a.59.59 0 0 0 .272.434.605.605 0 0 0 .508.066c6.22-2.02 7.15-7.03 5.67-12.64-1.98-7.54-12.56-8.84-14.05-.62-.48 2.66-.953 5.32-1.42 7.98-1.73 9.95-14.41-3.88-4.03-9.25a1.82 1.82 0 0 0-.66-3.43ZM465.09 589.189l22.61 31.11a.697.697 0 0 0 .444.272.676.676 0 0 0 .506-.122l11.74-8.52a14.639 14.639 0 0 0 4.195-4.757c1.05-1.893 1.706-4.024 1.929-6.272a18.46 18.46 0 0 0-.63-6.831 20.119 20.119 0 0 0-3.094-6.35l-2.05-2.81c-2.832-3.899-6.926-6.637-11.382-7.612-4.455-.975-8.908-.108-12.378 2.412l-11.74 8.53a.684.684 0 0 0-.261.709.688.688 0 0 0 .111.241ZM209.699 624.8c8.03 7.36 17.9 5.17 24.77-2.53.247-.273.214-.506-.1-.7l-3.67-2.22c-.353-.213-.656-.156-.91.17-4.99 6.55-14.98 7.1-19.01-.42-5.93-11.06 9.17-32.65 21.37-23.26 3.52 2.714 4.86 6.42 4.02 11.12a.836.836 0 0 0 .41.87l3.52 2.03c.414.234.67.12.77-.34 1.9-9.07-2.38-16.96-11.1-19.83-17.54-5.77-34.08 22.26-20.07 35.11ZM439.68 606.541a.518.518 0 0 1 .25-.69l19.45-9.1a.51.51 0 0 0 .272-.298.529.529 0 0 0-.022-.402l-1.53-3.1a.517.517 0 0 0-.68-.24l-23.99 11.22a.518.518 0 0 0-.25.69l16.25 34.99a.523.523 0 0 0 .69.25l24.91-11.62a.509.509 0 0 0 .166-.125.506.506 0 0 0 .131-.385.517.517 0 0 0-.057-.2l-1.56-3.12a.52.52 0 0 0-.69-.24l-20.11 9.41a.52.52 0 0 1-.69-.25l-5.34-11.37a.518.518 0 0 1 .25-.69l18.53-8.66a.518.518 0 0 0 .25-.69l-1.44-3.15a.521.521 0 0 0-.69-.25l-18.53 8.63a.52.52 0 0 1-.69-.25l-4.88-10.36ZM253.21 620.249a.316.316 0 0 1-.175-.162.317.317 0 0 1-.015-.238l3.9-11.19a.32.32 0 0 1 .4-.2l20.51 7.06a.317.317 0 0 0 .238-.015.316.316 0 0 0 .162-.175l1.35-3.59a.31.31 0 0 0 .021-.128.303.303 0 0 0-.031-.125.303.303 0 0 0-.078-.103.306.306 0 0 0-.112-.064l-25.4-8.83a.317.317 0 0 0-.238.015.316.316 0 0 0-.162.175l-12.74 36.96a.32.32 0 0 0 .2.4l26.29 9.05a.33.33 0 0 0 .125.018.327.327 0 0 0 .285-.218l1.22-3.66a.32.32 0 0 0-.2-.4l-21.43-7.45a.32.32 0 0 1-.2-.4l4.2-12.19a.32.32 0 0 1 .4-.2l19.75 6.76a.33.33 0 0 0 .125.018.327.327 0 0 0 .285-.218l1.31-3.66a.333.333 0 0 0 .018-.125.327.327 0 0 0-.218-.285l-19.79-6.83ZM421.584 608.752a.504.504 0 0 0-.451-.343.506.506 0 0 0-.197.027l-3.858 1.328a.507.507 0 0 0-.316.649l12.574 36.516a.505.505 0 0 0 .648.316l3.858-1.329a.512.512 0 0 0 .316-.648l-12.574-36.516ZM386.45 623.009a.524.524 0 0 1 .37-.63l19.89-5.01a.524.524 0 0 0 .325-.24.526.526 0 0 0 .055-.4l-.92-3.3a.518.518 0 0 0-.63-.37l-24.74 6.12a.524.524 0 0 0-.393.434.53.53 0 0 0 .013.206l9.35 37.5a.505.505 0 0 0 .09.183.51.51 0 0 0 .55.187l3.92-1.04a.518.518 0 0 0 .37-.63l-4.15-16.52a.53.53 0 0 1 .055-.4.532.532 0 0 1 .325-.24l17.3-4.28a.524.524 0 0 0 .325-.24.526.526 0 0 0 .055-.4l-.84-3.35a.518.518 0 0 0-.63-.37l-17.25 4.29a.514.514 0 0 1-.394-.06.526.526 0 0 1-.236-.32l-2.81-11.12ZM290.67 638.06c2.013.42 5.96 1.154 11.84 2.2 5.9 1.06 6.04 4.26 5.2 9.65a35.906 35.906 0 0 0-.35 7.81c.026.374.223.594.59.66l5.06.97a.639.639 0 0 0 .71-.88l-1.1-2.56a2.003 2.003 0 0 1-.14-.97c.48-4.63 1.94-9.85.31-13.04-.45-.89-1.53-1.53-2.08-2.48-.18-.32-.11-.57.21-.75 8.67-4.99 9.13-17.86-1.92-20.17a374.467 374.467 0 0 0-19.08-3.45c-.594-.093-.944.157-1.05.75l-6.59 37.32a.763.763 0 0 0 .13.576.771.771 0 0 0 .5.314l3.53.59c.486.087.773-.113.86-.6l2.71-15.48a.57.57 0 0 1 .232-.37.567.567 0 0 1 .428-.09ZM370.239 620.053a.42.42 0 0 0-.455-.381l-4.204.367a.418.418 0 0 0-.285.149.415.415 0 0 0-.097.306l3.383 38.673a.42.42 0 0 0 .455.381l4.204-.367a.422.422 0 0 0 .382-.455l-3.383-38.673ZM337.9 625.479a.399.399 0 0 1 .287.127.426.426 0 0 1 .086.135.427.427 0 0 1 .027.158l-1.2 34.1a.408.408 0 0 0 .37.43l4.21.4a.414.414 0 0 0 .409-.23.403.403 0 0 0 .041-.16l1.23-34.51a.412.412 0 0 1 .42-.39l12.05.51a.408.408 0 0 0 .43-.37l.33-3.61a.419.419 0 0 0-.23-.41.402.402 0 0 0-.16-.04l-30.32-1.14a.42.42 0 0 0-.161.024.419.419 0 0 0-.233.217.397.397 0 0 0-.036.159l-.05 3.74a.409.409 0 0 0 .39.41l12.11.45ZM343.35 151.1c-5.24 1.05-4 8.49.87 8.19 6.1-.374 8.836-3.53 8.21-9.47-.034-.36-.23-.504-.59-.43-2.934.6-5.764 1.17-8.49 1.71ZM414.026 168.739a5.903 5.903 0 0 0 2.909.082c.992-.215 1.969-.669 2.875-1.336a10.195 10.195 0 0 0 2.402-2.552 12.219 12.219 0 0 0 1.565-3.379c.353-1.213.519-2.468.49-3.692a10.226 10.226 0 0 0-.662-3.442c-.407-1.048-.988-1.955-1.711-2.668a5.883 5.883 0 0 0-2.5-1.489 5.892 5.892 0 0 0-2.909-.083c-.993.215-1.97.669-2.875 1.336-.906.667-1.722 1.535-2.403 2.552a12.219 12.219 0 0 0-1.565 3.379 12.201 12.201 0 0 0-.489 3.692c.029 1.224.254 2.393.661 3.442.407 1.048.989 1.955 1.711 2.669a5.907 5.907 0 0 0 2.501 1.489Z" stroke="#BDA180" stroke-width="2"/><path d="M554.41 391.71a208.62 208.62 0 1 0-417.24.002 208.62 208.62 0 0 0 417.24-.002Z" stroke="#BDA180" stroke-width="2"/><path d="M190.47 405.69c-5.58-10.56-4.12-25.74-.22-36.37 1.66-4.52 5.48-10.84 7.68-16.89.733-2.013.217-3.3-1.55-3.86" stroke="#BDA180" stroke-width="2"/><path d="M196.38 348.569c-.306-.793-.73-1.383-1.27-1.77a.817.817 0 0 0-.9-.04c-13.57 8.14-20.2 36.08-20.64 50.35-.41 13.66 3.02 24.14 14.32 31.57" stroke="#BDA180" stroke-width="2"/><path d="M187.89 428.679c4.126 3.714 9.08 6.254 14.86 7.62 19.52 4.61 39.43 1.95 53.83-12.61 9.73-9.84 13.72-18.01 13.59-32.35-.46-50.313-.857-101.023-1.19-152.13a.384.384 0 0 0-.4-.373.387.387 0 0 0-.19.063l-1.41.91" stroke="#BDA180" stroke-width="2"/><path d="M266.98 239.81c-.36-.92-.384-1.804-.07-2.65a.392.392 0 0 0-.16-.449.364.364 0 0 0-.46.059l-16.46 17.63c-.26.273-.38.6-.36.98 2.5 45.046 5.013 90.1 7.54 135.16.093 1.72-.187 3.26-.84 4.62-8.93 18.62-34.43 22.81-52.41 18.57-5.74-1.354-10.17-4.034-13.29-8.04" stroke="#BDA180" stroke-width="2"/><path d="M266.98 239.811c.42 50.966.76 101.95 1.02 152.95.1 20.6-17.93 37.57-36.82 42.05-14.627 3.466-29.057 1.423-43.29-6.13M196.38 348.57c-1.79 7.63-7.13 14.82-8.9 20.66-2.86 9.474-3.363 19.064-1.51 28.77.707 3.727 2.207 6.29 4.5 7.69M344.87 357.249c.58-8.307.54-16.417-.12-24.33-.82-9.84-4.42-19.84-7.91-29.02-6.16-16.17-15.84-31.79-25.92-45.78" stroke="#BDA180" stroke-width="2"/><path d="M310.92 258.119a101.852 101.852 0 0 0-16.25-16.59c-.26-.213-.514-.2-.76.04-6.98 6.82-12.68 15.64-8.24 25.64 3.533 7.954 8.08 15.427 13.64 22.42M299.31 289.63c3.07 5.16 7.94-.51 9.67-3.65M308.98 285.98c15.58 25.72 30.62 54.09 24.56 85.11-.25 1.28.07 1.6-1.1 2.61-15.43 13.37-33.72 21.32-53.47 26.9a1.389 1.389 0 0 0-.89.76c-.574 1.227-.257 1.68.95 1.36" stroke="#BDA180" stroke-width="2"/><path d="M279.03 402.719c1.68 2.807 4.423 4.157 8.23 4.05 9.713-.28 20.483-1.253 32.31-2.92 5.3-.746 10.433-2.48 15.4-5.2 13.97-7.64 21.98-33.79 27.24-47.95M362.21 350.699c.393 10.387 2.417 19.054 6.07 26 1.667 3.167 4.243 5.96 7.73 8.38M376.01 385.079c5.77 6.64 14.79 9.17 22.25 9.17 39.973.007 79.976.003 120.01-.01.38 0 .543-.19.49-.57a299.314 299.314 0 0 0-3.41-19c-.22-1.04-.79-1.23-1.72-1.54M513.63 373.129c-.28-1.18-1.307-1.933-3.08-2.26-8.52-1.566-15.174-5.513-19.96-11.84-10.43-13.78-38.88-43.09-58.65-30.37-3.92 2.52-15.66 13.3-15.53 19.43.02.987.676 1.997 1.97 3.03" stroke="#BDA180" stroke-width="2"/><path d="m418.38 351.119.95 1.08c.233.267.517.347.85.24 4.04-1.27 8.03-3.98 11.17-5.06 12.86-4.45 21.22 1.94 31.13 9.76M462.48 357.141l14.71 13.85c.346.32.283.483-.19.49-29.367.046-58.7.05-88 .01-4.367-.014-7.787-2.32-10.26-6.92M378.74 364.57c-1.79-5.93-4.08-11.99-4.2-18.31-.66-35.273-1.117-70.76-1.37-106.46a.227.227 0 0 0-.038-.126.248.248 0 0 0-.101-.086.267.267 0 0 0-.134-.02.269.269 0 0 0-.127.052l-1.79 1.49" stroke="#BDA180" stroke-width="2"/><path d="M370.98 241.11c-.287-.8-.23-1.726.17-2.78a.44.44 0 0 0-.76-.43l-12.36 15.62a1.27 1.27 0 0 0-.27.79c-.014 21.36-.017 42.72-.01 64.08 0 2.754-.337 5.45-1.01 8.09-2.91 11.37-5.65 20.65-11.87 30.77" stroke="#BDA180" stroke-width="2"/><path d="M370.98 241.109c-.2 2.82.3 6.01.32 8.52.193 30.627.55 61.254 1.07 91.88.14 8.35 2.08 15.19 4.91 22.64.12.3.336.494.65.58.333.08.603.027.81-.16M462.48 357.141c-1.913-2.747-4.713-5.317-8.4-7.71-11.673-7.594-23.573-7.03-35.7 1.69M513.63 373.129l3 17.65a1.043 1.043 0 0 1-.586 1.115 1.017 1.017 0 0 1-.434.095c-39.654.027-79.357.017-119.11-.03-7.48-.007-14.31-2.3-20.49-6.88M362.21 350.701l.04-6.26a.459.459 0 0 0-.389-.461.461.461 0 0 0-.511.321c-4.89 16.05-10.94 33.66-21.69 46.86-10.43 12.82-36.63 12.42-50.16 13.61-3.587.313-7.077-.37-10.47-2.05M308.98 285.98c-.113-1.007-.617-1.767-1.51-2.28-.333-.187-.577-.107-.73.24-1.627 3.666-4.103 5.563-7.43 5.69" stroke="#BDA180" stroke-width="2"/><path d="M310.92 258.119c-.34.153-.557.333-.65.54-.08.173-.023.4.17.68 15.66 22.48 31.8 50.72 32.48 77.66.233 9.033.083 17.03-.45 23.99-.027.347.077.39.31.13 1.033-1.147 1.73-2.437 2.09-3.87M222.979 528.059l.82.98c.2.24.46.367.78.38l13.04.32a.857.857 0 0 0 .88-.86v-25.64c0-.36.18-.537.54-.53l15.69.03M254.73 502.74c.08-.013.18-.01.3.01.14.027.213.117.22.27l.22 24.35M255.47 527.369c1.52 1.35 2.11 2.14 4.25 2.14 3.986.007 8 0 12.04-.02.326-.006.49-.173.49-.5v-64.24a.83.83 0 0 0-.36-.71l-1.14-.84" stroke="#BDA180" stroke-width="2"/><path d="M270.75 463.2c-.627-.913-1.637-1.383-3.03-1.41a342.68 342.68 0 0 0-12-.01c-.313 0-.47.157-.47.47v24.49a.47.47 0 0 1-.47.47l-16.3.05M238.48 487.26l-.01-22.58c0-.347-.15-.61-.45-.79-.233-.147-.51-.197-.83-.15M237.19 463.74l-.9-1.55a.914.914 0 0 0-.325-.323.868.868 0 0 0-.435-.117h-13.27c-.467 0-.703.233-.71.7-.133 21.227-.107 42.45.08 63.67.01.83.59 1.73 1.35 1.94" stroke="#BDA180" stroke-width="2"/><path d="M237.19 463.739c-.147-.02-.224.004-.23.07-.127 6.907-.187 13.8-.18 20.68.006 2.14.573 3.064 1.7 2.77M270.75 463.199c-.12.007-.224.017-.31.03-.147.027-.22.114-.22.26l.04 63.48a.712.712 0 0 1-.73.72l-14.06-.32M254.729 502.74l.341-.28a.972.972 0 0 0-.631-1.71h-16.57c-.297 0-.581.119-.791.331a1.132 1.132 0 0 0-.329.799v25.1a.726.726 0 0 1-.72.73c-4 .1-8.073.077-12.22-.07-.186-.007-.463.133-.83.42M279.81 527.41l-.03 1.44c-.013.414.187.627.6.64l13.63.31a.622.622 0 0 0 .404-.126.606.606 0 0 0 .226-.354l3.29-14.4a.774.774 0 0 1 .75-.6l13.36.08M312.04 514.4l2.13 8.88M314.17 523.28l.82 3.18c.087.346.283.613.59.8a4.553 4.553 0 0 1 1.68 1.79c.167.326.43.49.79.49l13.79.02a.64.64 0 0 0 .506-.25.655.655 0 0 0 .114-.56c-5.527-21.36-11.003-42.78-16.43-64.26-.133-.527-.557-.797-1.27-.81M314.76 463.679c-.727-.193-1.027-.59-.9-1.19a.659.659 0 0 0-.65-.8l-17.84.09c-.427 0-.693.207-.8.62l-17.11 64.81a.26.26 0 0 0 .27.33l2.08-.13" stroke="#BDA180" stroke-width="2"/><path d="M314.76 463.68c-.247.153-.43.313-.55.48-.114.16-.134.383-.06.67 5.513 20.52 10.9 41.05 16.16 61.59.213.826-.107 1.253-.96 1.28-3.27.11-15.38 1.94-14.06-4.41.086-.407-.074-.59-.48-.55-.254.026-.467.206-.64.54M312.04 514.4c.313.094.353-.19.12-.85a1.292 1.292 0 0 0-1.2-.86l-13.82-.2a.88.88 0 0 0-.554.186.917.917 0 0 0-.326.494l-3.51 14.08c-.073.28-.25.417-.53.41l-12.41-.25M340.85 527.94c-.347 1.127-.11 1.684.71 1.67 11.44-.226 23.123-.15 35.05.23.593.02.89-.263.89-.85v-11.02a.955.955 0 0 0-.59-.88c-.334-.146-.727-.166-1.18-.06M375.73 517.029c0-.62-.14-1.156-.42-1.61a.908.908 0 0 0-.78-.44l-18.71-.12M355.82 514.86l-.39-50.17a1.469 1.469 0 0 0-.29-.86l-.99-1.35M354.15 462.48c-4.653-.793-9.653-1-15-.62-.267.02-.4.164-.4.43v64.5c0 .434.217.66.65.68.813.027 1.297.184 1.45.47" stroke="#BDA180" stroke-width="2"/><path d="m354.15 462.48-.02 51.8c0 .347.17.564.51.65.693.18 1.087.157 1.18-.07M375.73 517.029l.14 9.61a1.1 1.1 0 0 1-.313.784 1.084 1.084 0 0 1-.777.326h-32.06c-.3 0-.584-.063-.85-.19-.44-.2-.78-.073-1.02.38M381.52 527.569l-.53 1.21a.544.544 0 0 0 .046.518.567.567 0 0 0 .464.252l12.96.15c.973.014 1.57-.453 1.79-1.4l3.18-13.52c.08-.32.286-.48.62-.48l13.19-.02M413.24 514.279a857.72 857.72 0 0 1 3.07 12.16c.2.807.75 1.144 1.65 1.01M417.96 527.449l.78 1.77a.786.786 0 0 0 .73.48l14.02.06a.507.507 0 0 0 .397-.189.502.502 0 0 0 .093-.431c-5.487-21.353-10.98-42.75-16.48-64.19-.207-.813-.78-1.233-1.72-1.26" stroke="#BDA180" stroke-width="2"/><path d="m415.78 463.69-.55-1.57c-.087-.247-.264-.37-.53-.37h-18.12c-.294 0-.477.143-.55.43l-16.91 64.3a.929.929 0 0 0-.009.426.928.928 0 0 0 .521.643.91.91 0 0 0 .418.081l1.47-.06M415.78 463.689c.393 2.647.93 5.26 1.61 7.84 4.793 18.174 9.6 36.567 14.42 55.18a.79.79 0 0 1-.78.99l-13.07-.25" stroke="#BDA180" stroke-width="2"/><path d="M413.24 514.279c.46-.373.347-.77-.34-1.19-2.1-1.29-12.02-.47-14.83-.15-.327.04-.527.22-.6.54l-3.11 13.61c-.093.4-.343.597-.75.59l-12.09-.11M442.25 527.62c-.08.626-.06 1.106.06 1.44.12.326.486.486 1.1.48 11.22-.14 22.626-.067 34.22.22.813.02 1.213-.377 1.2-1.19l-.12-10.61a.989.989 0 0 0-.25-.66l-1.14-1.29M477.32 516.01c-4.53-2.09-14.43-.99-20.02-1.12M457.3 514.89l-.58-51.48" stroke="#BDA180" stroke-width="2"/><path d="M456.72 463.411c-2.58-2.36-12.53-1.78-16-1.55-.367.026-.55.226-.55.6l.12 64.37c0 .373.187.583.56.63l1.4.16" stroke="#BDA180" stroke-width="2"/><path d="M456.72 463.41c-.687.127-1.053.573-1.1 1.34-.75 12.11-.24 24.2-.37 36.15-.047 4.507-.027 9.023.06 13.55 0 .153.047.303.134.429a.775.775 0 0 0 .356.281c.667.26 1.167.17 1.5-.27M477.32 516.01l-.33 10.88a.859.859 0 0 1-.86.84l-33.88-.11M190.139 202.54l10.09-7.88a.572.572 0 0 0 .223-.394.596.596 0 0 0-.123-.436l-.06-.08a8.092 8.092 0 0 0-2.172-1.938 7.575 7.575 0 0 0-2.664-1.002 6.846 6.846 0 0 0-2.749.087 6.352 6.352 0 0 0-2.415 1.163l-.24.19c-1.427 1.118-2.31 2.81-2.457 4.703-.146 1.894.457 3.835 1.677 5.397l.07.09a.588.588 0 0 0 .82.1ZM517.01 216.63l8.99 8.99a.476.476 0 0 0 .67 0l.14-.14c1.404-1.405 2.261-3.241 2.383-5.105.122-1.864-.501-3.603-1.733-4.835l-.37-.37c-1.232-1.232-2.971-1.855-4.835-1.733-1.864.122-3.7.979-5.105 2.383l-.14.14a.476.476 0 0 0 0 .67ZM129.03 285.72c-2.34 7.06 5.28 9.77 7.81 2.97 1.746-4.68-.004-8.066-5.25-10.16-.3-.12-.49-.023-.57.29a86.263 86.263 0 0 1-1.99 6.9ZM112.31 337.81c2.37 4.48 7.49 1.58 7.83-2.55.46-5.487-2.047-8.34-7.52-8.56-.3-.013-.47.133-.51.44-.29 2.66-1.01 8.38.2 10.67ZM583.7 334.9l3.02 12.29a.617.617 0 0 0 .75.46l.14-.03c1.936-.477 3.621-1.631 4.684-3.208 1.063-1.577 1.418-3.448.986-5.202l-.06-.27a6.28 6.28 0 0 0-1.178-2.395 6.81 6.81 0 0 0-2.111-1.757 7.612 7.612 0 0 0-2.722-.851 8.192 8.192 0 0 0-2.919.183l-.14.03a.622.622 0 0 0-.45.75ZM300.32 500.949l8.51-.3c.366-.013.51-.2.43-.56l-4.36-20.14" stroke="#BDA180" stroke-width="2"/><path d="m304.9 479.95-.44-3.89a.602.602 0 0 0-.977-.418.601.601 0 0 0-.213.368l-4.78 24.29a.632.632 0 0 0 .061.421.601.601 0 0 0 .309.279c.786.326 1.273.31 1.46-.05M304.9 479.949l-4.58 21M401.65 501.009l8.61-.1c.367-.007.513-.187.44-.54l-4.36-20.99" stroke="#BDA180" stroke-width="2"/><path d="M406.34 479.379c.073-1.207-.204-2.42-.83-3.64a.338.338 0 0 0-.529-.086.337.337 0 0 0-.101.176l-4.9 23.93c-.056.264-.018.541.108.781.126.241.331.431.582.539.413.173.74.15.98-.07M406.34 479.379l-4.69 21.63M471.95 589.899l17.25 23.76a.7.7 0 0 0 .98.15l7.55-5.48a9.731 9.731 0 0 0 2.853-3.284c.706-1.314 1.135-2.8 1.264-4.373a13.203 13.203 0 0 0-.518-4.796 14.74 14.74 0 0 0-2.219-4.487l-2.93-4.03c-2.009-2.765-4.88-4.731-7.98-5.466-3.099-.735-6.175-.179-8.55 1.546l-7.55 5.49a.701.701 0 0 0-.15.97ZM292.94 621.28l-1.91 11.14a1.19 1.19 0 0 0 .541 1.222c.134.084.283.141.439.168l11.91 2.03a7.489 7.489 0 0 0 2.716-.032 7.049 7.049 0 0 0 2.469-.994 6.437 6.437 0 0 0 1.845-1.804 6.015 6.015 0 0 0 .94-2.34l.13-.81c.286-1.683-.162-3.42-1.248-4.83-1.086-1.41-2.719-2.377-4.542-2.69l-11.91-2.04a1.197 1.197 0 0 0-1.38.98Z" stroke="#BDA180" stroke-width="2"/><path d="m678.757 371.768-10.87 14.05-1.79 1.89-2.99 2.47c-.3.247-.32.514-.06.8 10.13 11.11 15.2 18.86 21.47 29.97 4.33 9.1 4.39 17.72 3.76 25.62a35.43 35.43 0 0 1-.9 5.55c-5.31 21.56-18.99 35.5-36.34 48.22-.266.194-.42.454-.46.78a6.827 6.827 0 0 0 .06 1.87c8.8 49.93-20.12 79.42-66.5 89.68-.282.062-.535.22-.715.448a1.28 1.28 0 0 0-.275.802c.76 41.12-45.41 63.24-78.6 72.06a756.596 756.596 0 0 1-12.77 3.28.897.897 0 0 0-.67.64c-4.24 13.44-15.33 23.51-26.8 30.94-29.79 19.28-64.59 31.63-95.52 50.39-5.9 3.58-10.99 7.484-15.27 11.71-3.546 3.507-6.083 7.86-7.61 13.06h-.41c-2.28-10.38-12.26-18.35-21.49-24.2-19.3-12.24-43.74-22.59-65.5-33.24-20.97-10.26-50.29-25.09-57.95-48.73a.923.923 0 0 0-.66-.61c-27.61-6.42-59.57-17.44-78.35-39.95-7.73-9.26-13.85-22.55-13.01-34.89a1.91 1.91 0 0 0-1.55-2.01c-45.02-8.72-76.23-41.93-65.6-89.85.207-.926-.12-1.7-.98-2.32-16.73-12-31.52-27.47-35.89-48.28-.31-1.47-.01-3.12-1.19-4.87a1.53 1.53 0 0 1-.26-.89c.01-5.31-.46-10.64.95-15.7a90.964 90.964 0 0 1 4.9-13.48c2.8-6.18 7.28-12.18 11.3-18.08a31.709 31.709 0 0 1 6.29-6.86c.847.114 1.53-.256 2.05-1.11.167-.273.127-.513-.12-.72-4.78-3.97-7.72-8.94-11.67-12.38-3.49-4.86-6.2-11.26-8.49-15.88-2.92-5.89-5.2-12.14-5.19-18.83.03-27.68 15.83-46.09 37.46-61.64.887-.64 1.16-1.71.82-3.21-2.1-9.26-2.516-18.49-1.25-27.69 4.93-35.85 34.69-55.11 67.74-61.82.327-.066.494-.266.5-.6.3-47.11 54.46-67.56 91.59-76a.935.935 0 0 0 .69-.62c8.34-24.32 39.08-39.7 60.16-49.77 15.08-7.2 30.114-14.503 45.1-21.91 13.35-6.6 32.21-16.88 38.35-30.14 1.34-2.9 1.07-6.13 1.08-9.3a.427.427 0 0 1 .244-.379.42.42 0 0 1 .446.06c.394.313.52.71.38 1.19-3.59 12.31 18.12 27 27.04 31.92 29.22 16.12 60.91 27.97 88.94 45.98 12.69 8.15 23.74 17.77 28.84 32.469.114.334.344.55.69.65.78.227 1.744.464 2.89.71 19.02 4.087 36.89 11.064 53.61 20.93 18.19 10.73 35.35 29.68 34.61 52.29-.06 1.95 1.02 2.65 2.86 3.03 36.85 7.47 66.68 31.86 66.47 72.29-.04 5.75-1.04 12.42-1.93 18.69a.831.831 0 0 0 .35.81c16.29 11.44 29.26 25.02 35.46 43.94.5 1.52.48 3.97 1.62 5.86.16.274.24.57.24.89.054 5.307.087 10.614.1 15.92.01 5.41-3.22 11.54-5.24 16.54-.126.32-.313.6-.56.84l-1 1a.277.277 0 0 0-.068.123.277.277 0 0 0 .003.14.262.262 0 0 0 .073.12.262.262 0 0 0 .122.067c.1.02.197.047.29.08.027.007.034.024.02.05l-3.07 5.14Zm-48.2 18.94a284.702 284.702 0 0 0-284.7-284.7 284.699 284.699 0 0 0-284.7 284.7 284.703 284.703 0 0 0 284.7 284.7 284.703 284.703 0 0 0 201.314-83.386 284.704 284.704 0 0 0 83.386-201.314Zm-1.489-38.598a.906.906 0 0 0 .437-.167c.135-.095.252-.227.346-.388a1.74 1.74 0 0 0 .203-.548 2.179 2.179 0 0 0-.123-1.234 1.745 1.745 0 0 0-.307-.497 1.234 1.234 0 0 0-.416-.312.91.91 0 0 0-.462-.078.922.922 0 0 0-.437.168 1.24 1.24 0 0 0-.346.387 1.745 1.745 0 0 0-.202.549 2.16 2.16 0 0 0 .123 1.233c.079.19.183.359.307.498s.265.245.416.311c.15.067.307.094.461.078Z" fill="#BDA180"/><path d="m396.399 130.588-2.713-.386a.66.66 0 0 0-.746.561l-.519 3.643a.66.66 0 0 0 .561.746l2.712.387c.361.051.695-.2.747-.561l.518-3.643a.66.66 0 0 0-.56-.747ZM377.98 137.92l2.73.25c.487.047.693.31.62.79l-.34 2.35c-.067.453-.327.643-.78.57l-2.88-.43c-.313-.047-.49.09-.53.41a1005.78 1005.78 0 0 1-1.99 16.39c-.127.967-.06 1.613.2 1.94.42.533 1.26.707 2.52.52a.866.866 0 0 1 .95.604.9.9 0 0 1 .03.406l-.34 2.14a.719.719 0 0 1-.21.392.692.692 0 0 1-.4.188c-4.5.46-7.5-1.18-6.87-6.15.707-5.547 1.4-11.197 2.08-16.95a.534.534 0 0 0-.306-.545.508.508 0 0 0-.214-.045h-2.07c-.553 0-.8-.273-.74-.82l.27-2.62c.047-.433.283-.607.71-.52l2.3.49a.581.581 0 0 0 .7-.51l.59-5.77c.047-.467.3-.66.76-.58l2.99.52a.53.53 0 0 1 .43.6l-.81 5.61a.692.692 0 0 0 .137.516.667.667 0 0 0 .463.254ZM286.789 132.316l-2.906.746a.55.55 0 0 0-.396.67l.995 3.874a.55.55 0 0 0 .669.396l2.906-.746a.55.55 0 0 0 .396-.669l-.995-3.875a.55.55 0 0 0-.669-.396ZM357.57 158.9c.26.26.586.337.98.23.424-.125.834-.069 1.141.155.306.224.484.598.493 1.039.009.442-.15.915-.444 1.316-.293.4-.696.695-1.12.82-2.78.86-4.744-.127-5.89-2.96a.454.454 0 0 0-.325-.28.459.459 0 0 0-.415.11c-3.494 3.187-7.544 4.057-12.15 2.61-4.67-1.47-5.35-8.78-2.13-11.93 2.67-2.6 9.05-3.03 12.98-3.5a1.496 1.496 0 0 0 1.19-.87c1.473-3.22.633-5.327-2.52-6.32-4.527-1.427-7.48-.1-8.86 3.98-.134.393-.404.563-.81.51l-2.35-.28c-.407-.047-.584-.273-.53-.68.99-7.76 10.48-8.85 16.28-6.37 2.92 1.25 3.81 3.14 3.69 6.43-.18 5.12-.15 10.22.09 15.3 0 .007.233.237.7.69Zm-14.22-7.8c-5.24 1.05-4 8.49.87 8.19 6.1-.373 8.836-3.53 8.21-9.47-.034-.36-.23-.503-.59-.43-2.934.6-5.764 1.17-8.49 1.71ZM272 150.25a.528.528 0 0 0-.36.67l6.09 19.74c.12.393-.014.653-.4.78l-2.73.89c-.387.126-.64-.004-.76-.39a6615.45 6615.45 0 0 0-5.57-18.261c-.274-.893-.59-1.456-.95-1.689-.573-.367-1.223-.167-1.95.6a.62.62 0 0 1-1.04-.22l-.95-2.68a.706.706 0 0 1 .237-.79.677.677 0 0 1 .263-.12l2.14-.48a.739.739 0 0 0 .307-.152.748.748 0 0 0 .183-.938c-2.66-4.9-1.86-9.92 4.42-10.88a.712.712 0 0 1 .459.088c.138.08.244.204.301.352l.7 1.89c.127.32.033.556-.28.71l-2.5 1.23a.87.87 0 0 0-.412.409.895.895 0 0 0-.068.581l.93 4.339c.167.78.62 1.027 1.36.741l2.27-.88c.4-.16.67-.034.81.38l.85 2.52c.133.386.003.633-.39.739l-2.96.821ZM312.88 164.25c-11.14-2.46-12.63-22.8-1.62-26.13 6.687-2.02 11.2.123 13.54 6.43a.657.657 0 0 1-.267.788.666.666 0 0 1-.283.102l-2.98.33c-.3.033-.496-.094-.59-.38-1.18-3.814-3.693-5.15-7.54-4.01-8.25 2.44-5.98 21.26 3.85 19.22 2.82-.587 4.437-2.6 4.85-6.04a.86.86 0 0 1 .76-.74l2.69-.25c.42-.04.624.153.61.58-.3 7.4-6.03 11.64-13.02 10.1ZM395.042 140.388l-2.962-.474a.54.54 0 0 0-.619.447l-3.871 24.172a.54.54 0 0 0 .448.619l2.962.474a.54.54 0 0 0 .618-.447l3.872-24.172a.54.54 0 0 0-.448-.619ZM289.283 142.036l-3.294.76a.351.351 0 0 0-.262.42l5.57 24.125a.35.35 0 0 0 .42.263l3.293-.761a.349.349 0 0 0 .262-.419l-5.569-24.126a.35.35 0 0 0-.42-.262ZM248.23 144.652l-2.936 1.222a.45.45 0 0 0-.243.588l1.591 3.822a.45.45 0 0 0 .589.243l2.936-1.222a.45.45 0 0 0 .242-.589l-1.591-3.822a.45.45 0 0 0-.588-.242ZM426.654 165.682a10.42 10.42 0 0 1-12.987 6.964l-1.666-.503a10.424 10.424 0 0 1-7.357-8.941 10.407 10.407 0 0 1 .394-4.046l1.768-5.859a10.42 10.42 0 0 1 12.987-6.964l1.666.503a10.424 10.424 0 0 1 6.964 12.987l-1.769 5.859Zm-12.628 3.056a5.903 5.903 0 0 0 2.909.082c.993-.215 1.969-.669 2.875-1.336.906-.667 1.722-1.535 2.403-2.552a12.248 12.248 0 0 0 1.565-3.379c.352-1.213.519-2.468.489-3.692-.03-1.224-.254-2.393-.661-3.442-.407-1.048-.989-1.955-1.712-2.668a5.877 5.877 0 0 0-2.5-1.489 5.892 5.892 0 0 0-2.909-.083c-.992.215-1.969.669-2.875 1.336-.905.667-1.722 1.535-2.403 2.552a12.277 12.277 0 0 0-1.565 3.379 12.264 12.264 0 0 0-.489 3.692c.03 1.224.255 2.393.662 3.442.407 1.048.988 1.955 1.711 2.669a5.897 5.897 0 0 0 2.5 1.489ZM251.817 153.878l-2.689 1.086a.58.58 0 0 0-.32.755l9.14 22.624a.58.58 0 0 0 .755.32l2.689-1.086a.58.58 0 0 0 .32-.755l-9.14-22.623a.58.58 0 0 0-.755-.321ZM245.04 181.77l2.17-1.26c.427-.253.76-.163 1 .27l.95 1.74c.187.34.147.65-.12.93-2.25 2.3-6.58 3.75-8.46.23-2.866-5.387-5.736-10.773-8.61-16.16a.625.625 0 0 0-.92-.21l-1.74 1.24c-.386.273-.686.2-.9-.22l-1.2-2.38a.69.69 0 0 1 .34-.95l1.95-.85a.577.577 0 0 0 .348-.584.629.629 0 0 0-.068-.236l-2.66-4.97c-.22-.413-.12-.727.3-.94l2.18-1.1c.54-.267.95-.137 1.23.39l2.54 4.72a.605.605 0 0 0 .37.297.612.612 0 0 0 .47-.057l2.44-1.41a.563.563 0 0 1 .441-.052.58.58 0 0 1 .349.282l1.19 2.23c.234.433.127.757-.32.97l-2.45 1.17a.582.582 0 0 0-.26.8l8.43 15.82a.732.732 0 0 0 1.01.29ZM447.58 159.83c5.087-1.74 9.267-.453 12.54 3.86 1.08 1.41 1.09 3.85.34 5.63a490.445 490.445 0 0 1-7.7 17.38c-.173.367-.447.467-.82.3l-2.46-1.11a.63.63 0 0 1-.343-.356.636.636 0 0 1 .013-.494c2.107-4.74 4.21-9.453 6.31-14.14 1.67-3.74 1.22-7.18-3.06-8.31-8.1-2.12-11.97 11.89-14.43 17.68a.564.564 0 0 1-.335.317.583.583 0 0 1-.465-.027l-2.64-1.33c-.3-.146-.38-.376-.24-.69l9.92-22.23a.679.679 0 0 1 .395-.368.695.695 0 0 1 .545.028l2.29 1.11a.771.771 0 0 1 .36 1.01l-.59 1.34c-.187.414-.063.547.37.4ZM214.24 176.12c-.173-3.154 1.074-5.557 3.74-7.21.294-.187.537-.134.73.16l1.79 2.67c.207.306.157.563-.15.77-8.65 5.63 1.59 16.56 5.27 22.1.194.286.14.52-.16.7l-2.5 1.51c-.36.213-.656.143-.89-.21l-13.15-20.17c-.26-.4-.19-.727.21-.98l2.37-1.47a.56.56 0 0 1 .614.021.554.554 0 0 1 .146.159l1.36 2.15c.467.746.674.68.62-.2Z" fill="#BDA180"/><path d="M562.98 391.72a217.198 217.198 0 0 1-217.2 217.199 217.2 217.2 0 1 1 217.2-217.199Zm-8.57-.01a208.62 208.62 0 1 0-417.24 0 208.623 208.623 0 0 0 208.62 208.62 208.62 208.62 0 0 0 208.62-208.62Z" fill="#BDA180"/><path d="M488.83 186.739c-1.3-6.97 6.4-11.9 12.37-10.18 7.27 2.1 15.08 11.03 9.46 19.15-.247.347-.533.387-.86.12l-2.33-1.9c-.28-.233-.333-.506-.16-.82 4.12-7.53-7.24-16.7-12.74-11.07-6.38 6.53 14.92 15.56 7.35 26.64-7.89 11.52-31.04-3.83-21.51-17.47.227-.32.493-.36.8-.12l2.48 1.89a.648.648 0 0 1 .13.88c-5.85 8.43 8.33 19.6 14.14 12.22 3.8-4.84-8.15-14.07-9.13-19.34ZM192.05 206.321c5.05 6.55 15.44 2.65 12.79-5.72-.113-.347-.03-.637.25-.87l2.36-1.98c.327-.274.58-.217.76.17 3.71 8.02-3.94 17.36-12.37 15.62-10-2.07-16.65-17.26-7.12-24.3 6.58-4.86 13.27-1 17.24 4.79.207.306.167.57-.12.79l-13.68 10.64c-.32.253-.357.54-.11.86Zm-1.91-3.78 10.09-7.88a.587.587 0 0 0 .205-.625.596.596 0 0 0-.105-.205l-.06-.08a8.079 8.079 0 0 0-2.172-1.939 7.575 7.575 0 0 0-2.664-1.002 6.844 6.844 0 0 0-2.749.087 6.332 6.332 0 0 0-2.415 1.164l-.24.19c-1.427 1.117-2.311 2.809-2.457 4.702-.146 1.894.457 3.835 1.677 5.398l.07.09a.592.592 0 0 0 .82.1ZM172.22 234.511c6.63-2.9 7.8-10.19 3.53-16a.74.74 0 0 1-.143-.491.717.717 0 0 1 .213-.459l2.49-2.49c.307-.314.58-.284.82.09 3.39 5.36 4.99 11.82 1.23 17.44-11.21 16.78-35.09-.09-32.58-15.61 1.6-9.93 12.81-14.53 21.51-10.22.307.153.347.36.12.62l-2.36 2.72a.816.816 0 0 1-.443.263.836.836 0 0 1-.517-.053c-4.467-1.98-8.27-1.354-11.41 1.88-9.08 9.36 7.25 26.82 17.54 22.31ZM513.47 218.831c-5.79 6.05-.91 15.8 7.31 12.08.387-.174.723-.104 1.01.21l1.89 2.05c.293.32.257.593-.11.82-3.987 2.513-7.867 2.386-11.64-.38-14.51-10.65 6.05-32.02 17.9-20.22 5.79 5.77 2.93 13.23-2.52 17.84-.26.22-.51.21-.75-.03l-12.35-12.37a.528.528 0 0 0-.37-.155.525.525 0 0 0-.37.155Zm3.54-2.2 8.99 8.99a.476.476 0 0 0 .67 0l.14-.14c1.404-1.405 2.261-3.241 2.383-5.105.122-1.864-.501-3.603-1.733-4.835l-.37-.37c-1.232-1.232-2.971-1.855-4.835-1.733-1.864.122-3.7.979-5.105 2.383l-.14.14a.473.473 0 0 0 0 .67ZM545.96 238.21c3.147-.74 5.664.194 7.55 2.8.2.28.167.53-.1.75l-2.5 2.05a.586.586 0 0 1-.659.061.611.611 0 0 1-.181-.151c-3.45-4.36-7.32-3.56-11.41-.41a291.455 291.455 0 0 0-9.83 7.94.58.58 0 0 1-.649.059.567.567 0 0 1-.171-.149l-1.82-2.33c-.233-.293-.203-.556.09-.79l18.8-15.3c.347-.28.66-.25.94.09l1.74 2.11a.672.672 0 0 1-.08.93l-2.01 1.77c-.653.574-.556.764.29.57ZM266.98 239.81c.42 50.966.76 101.95 1.02 152.95.1 20.6-17.93 37.57-36.82 42.05-14.626 3.466-29.056 1.423-43.29-6.13-11.3-7.43-14.73-17.91-14.32-31.57.44-14.27 7.07-42.21 20.64-50.35a.809.809 0 0 1 .9.04c.54.386.964.976 1.27 1.77-1.79 7.63-7.13 14.82-8.9 20.66-2.86 9.473-3.363 19.063-1.51 28.77.707 3.726 2.207 6.29 4.5 7.69 3.12 4.006 7.55 6.686 13.29 8.04 17.98 4.24 43.48.05 52.41-18.57.654-1.36.934-2.9.84-4.62-2.526-45.06-5.04-90.114-7.54-135.16-.02-.38.1-.707.36-.98l16.46-17.63a.367.367 0 0 1 .219-.113.376.376 0 0 1 .398.25c.029.082.03.171.003.253-.313.846-.29 1.73.07 2.65ZM370.98 241.11c-.2 2.82.3 6.01.32 8.52.193 30.627.55 61.254 1.07 91.88.14 8.35 2.08 15.19 4.91 22.64.12.3.336.494.65.58.333.08.603.027.81-.16 2.473 4.6 5.893 6.907 10.26 6.92 29.3.04 58.633.037 88-.01.473-.006.536-.17.19-.49l-14.71-13.85c-1.914-2.746-4.714-5.316-8.4-7.71-11.674-7.593-23.574-7.03-35.7 1.69-1.294-1.033-1.95-2.043-1.97-3.03-.13-6.13 11.61-16.91 15.53-19.43 19.77-12.72 48.22 16.59 58.65 30.37 4.786 6.327 11.44 10.274 19.96 11.84 1.773.327 2.8 1.08 3.08 2.26l3 17.65a1.047 1.047 0 0 1-.231.845 1.026 1.026 0 0 1-.789.365c-39.654.027-79.357.017-119.11-.03-7.48-.006-14.31-2.3-20.49-6.88-3.487-2.42-6.064-5.213-7.73-8.38-3.654-6.946-5.677-15.613-6.07-26l.04-6.26a.46.46 0 0 0-.9-.14c-4.89 16.05-10.94 33.66-21.69 46.86-10.43 12.82-36.63 12.42-50.16 13.61-3.587.314-7.077-.37-10.47-2.05-1.207.32-1.524-.133-.95-1.36a1.38 1.38 0 0 1 .89-.76c19.75-5.58 38.04-13.53 53.47-26.9 1.17-1.01.85-1.33 1.1-2.61 6.06-31.02-8.98-59.39-24.56-85.11-.114-1.006-.617-1.766-1.51-2.28-.334-.186-.577-.106-.73.24-1.627 3.667-4.104 5.564-7.43 5.69-5.56-6.993-10.107-14.466-13.64-22.42-4.44-10 1.26-18.82 8.24-25.64.246-.24.5-.253.76-.04a101.852 101.852 0 0 1 16.25 16.59c-.34.154-.557.334-.65.54-.08.174-.024.4.17.68 15.66 22.48 31.8 50.72 32.48 77.66.233 9.034.083 17.03-.45 23.99-.027.347.076.39.31.13 1.033-1.146 1.73-2.436 2.09-3.87 6.22-10.12 8.96-19.4 11.87-30.77a32.617 32.617 0 0 0 1.01-8.09c-.007-21.36-.004-42.72.01-64.08 0-.291.095-.569.27-.79l12.36-15.62a.44.44 0 0 1 .76.43c-.4 1.054-.457 1.98-.17 2.78Z" fill="#BDA180"/><path d="M187.89 428.679c14.233 7.554 28.663 9.597 43.29 6.13 18.89-4.48 36.92-21.45 36.82-42.05-.26-51-.6-101.983-1.02-152.95l1.41-.91a.381.381 0 0 1 .59.31c.333 51.107.73 101.817 1.19 152.13.13 14.34-3.86 22.51-13.59 32.35-14.4 14.56-34.31 17.22-53.83 12.61-5.78-1.366-10.734-3.906-14.86-7.62ZM378.74 364.57c-.206.187-.476.24-.81.16a.934.934 0 0 1-.65-.58c-2.83-7.45-4.77-14.29-4.91-22.64-.52-30.627-.876-61.253-1.07-91.88-.02-2.51-.52-5.7-.32-8.52l1.79-1.49a.269.269 0 0 1 .127-.052.267.267 0 0 1 .134.02.236.236 0 0 1 .139.212c.254 35.7.71 71.187 1.37 106.46.12 6.32 2.41 12.38 4.2 18.31ZM152.225 266.026l-28.699-18.638a.621.621 0 0 0-.858.183l-1.536 2.365a.62.62 0 0 0 .183.857l28.699 18.638a.62.62 0 0 0 .858-.182l1.535-2.365a.62.62 0 0 0-.182-.858ZM568.72 266.729l1.97 3.39a.315.315 0 0 1 .011.288.318.318 0 0 1-.094.115.313.313 0 0 1-.137.057l-26.34 4.2a.304.304 0 0 1-.183-.025.302.302 0 0 1-.137-.125l-2.02-3.42a.314.314 0 0 1 .03-.36l17.16-19.98a.314.314 0 0 1 .49.04l2.07 3.28a.312.312 0 0 1 .047.19.315.315 0 0 1-.077.18l-13.94 15.31a.312.312 0 0 0-.037.359.308.308 0 0 0 .327.151l20.54-3.8a.316.316 0 0 1 .184.025.316.316 0 0 1 .136.125ZM310.92 258.119c10.08 13.99 19.76 29.61 25.92 45.78 3.49 9.18 7.09 19.18 7.91 29.02.66 7.913.7 16.023.12 24.33-.36 1.433-1.057 2.723-2.09 3.87-.233.26-.337.217-.31-.13.533-6.96.683-14.957.45-23.99-.68-26.94-16.82-55.18-32.48-77.66-.193-.28-.25-.507-.17-.68.093-.207.31-.387.65-.54ZM140.06 283.271c1.6 7.33-4.22 18.38-12.77 11.72-5.1-3.98-1.15-11.18 1.04-17.13a.78.78 0 0 0-.31-.93l-3.42-2.19c-.373-.24-.753-.247-1.14-.02-2.53 1.51-6.12 5.7-4.82 8.9.36.9 1.35 1.56 1.94 2.52.16.26.154.513-.02.76l-1.44 2.16c-.153.227-.35.27-.59.13-9.34-5.59 1.34-21.79 7.45-18.56 4.934 2.607 9.864 5.22 14.79 7.84.98.527 1.664.19 2.05-1.01.147-.453.45-.607.91-.46l1.73.56c.407.133.577.413.51.84-.466 3.22-2.283 4.673-5.45 4.36-.386-.04-.54.13-.46.51Zm-11.03 2.45c-2.34 7.06 5.28 9.77 7.81 2.97 1.747-4.68-.003-8.067-5.25-10.16-.3-.12-.49-.023-.57.29a85.44 85.44 0 0 1-1.99 6.9ZM584.596 276.719l-3.7 1.813a.47.47 0 0 0-.216.628l1.355 2.766c.115.233.396.33.629.216l3.7-1.813a.47.47 0 0 0 .215-.629l-1.355-2.766a.47.47 0 0 0-.628-.215ZM575.549 280.942l-22.077 10.342a.55.55 0 0 0-.265.732l1.273 2.716a.55.55 0 0 0 .731.265l22.078-10.342a.55.55 0 0 0 .264-.731l-1.272-2.717a.55.55 0 0 0-.732-.265ZM308.98 285.98c-1.73 3.14-6.6 8.81-9.67 3.65 3.327-.127 5.803-2.024 7.43-5.69.153-.347.397-.427.73-.24.893.513 1.397 1.273 1.51 2.28ZM130.432 309.243l-31.963-12.334a.6.6 0 0 0-.776.344l-1.03 2.668a.6.6 0 0 0 .344.776l31.963 12.334a.6.6 0 0 0 .776-.344l1.03-2.668a.6.6 0 0 0-.344-.776ZM573.95 322.051c-8.06 2.12-14.39-5.97-12.29-13 2.04-6.82 10.22-10.17 16.84-9.53 10.02.98 14.47 14.89 4.26 19.76-.36.173-.6.07-.72-.31l-.89-2.81c-.127-.394-.007-.68.36-.86 2.993-1.5 3.986-3.774 2.98-6.82-2.99-9.02-20.47-3.86-19.18 4.55.573 3.7 3.023 5.496 7.35 5.39.4-.014.663.17.79.55l.82 2.48c.106.313 0 .513-.32.6ZM121.84 329.12c8.01 15.57-13.9 20.66-13.47 7.36.1-3.107.317-6.227.65-9.36a1.066 1.066 0 0 0-.067-.5 1.06 1.06 0 0 0-.293-.41c-1.327-1.114-2.88-1.594-4.66-1.44a1.267 1.267 0 0 0-.83.41c-2.68 2.99-4.66 9.14.31 11.26.32.14.437.38.35.72l-.59 2.46a.72.72 0 0 1-.138.28.725.725 0 0 1-.543.28.739.739 0 0 1-.309-.05c-9.78-3.92-4.48-21.41 3.06-19.72a429.718 429.718 0 0 1 14.88 3.6c1.733.453 2.617.036 2.65-1.25.02-.441.208-.836.526-1.106.317-.269.74-.392 1.181-.343.441.048.867.265 1.191.605.325.34.522.778.552 1.224.127 2.773-1.237 4.506-4.09 5.2-.453.106-.573.366-.36.78Zm-9.53 8.69c2.37 4.48 7.49 1.58 7.83-2.55.46-5.487-2.047-8.34-7.52-8.56-.3-.014-.47.133-.51.44-.29 2.66-1.01 8.38.2 10.67ZM579.5 335.02c-7.98 1.8-8.8 12.8-.02 14.05.4.053.65.276.75.67l.73 2.8c.107.413-.05.623-.47.63-10.74.15-14.58-13.77-6.97-19.84 7.69-6.14 20.87-4.9 23.24 6.16 1.58 7.37-5.4 11.97-11.57 13.21a.709.709 0 0 1-.525-.094.729.729 0 0 1-.315-.436l-4.17-16.73c-.093-.36-.32-.5-.68-.42Zm4.2-.12 3.02 12.29a.633.633 0 0 0 .279.386.622.622 0 0 0 .471.074l.14-.03c1.936-.478 3.621-1.632 4.684-3.209 1.064-1.577 1.418-3.448.986-5.201l-.06-.27a6.237 6.237 0 0 0-1.178-2.395 6.79 6.79 0 0 0-2.11-1.757 7.625 7.625 0 0 0-2.723-.852 8.193 8.193 0 0 0-2.919.184l-.14.03a.62.62 0 0 0-.45.75Z" fill="#BDA180"/><path d="M362.21 350.701c-5.26 14.16-13.27 40.31-27.24 47.95-4.967 2.72-10.1 4.453-15.4 5.2-11.827 1.666-22.597 2.64-32.31 2.92-3.807.106-6.55-1.244-8.23-4.05 3.393 1.68 6.883 2.363 10.47 2.05 13.53-1.19 39.73-.79 50.16-13.61 10.75-13.2 16.8-30.81 21.69-46.86a.458.458 0 0 1 .791-.163c.072.084.11.192.109.303l-.04 6.26ZM462.48 357.141c-9.91-7.82-18.27-14.21-31.13-9.76-3.14 1.08-7.13 3.79-11.17 5.06-.333.106-.617.026-.85-.24l-.95-1.08c12.127-8.72 24.027-9.284 35.7-1.69 3.687 2.393 6.487 4.963 8.4 7.71ZM196.38 348.57c1.767.56 2.283 1.847 1.55 3.86-2.2 6.05-6.02 12.37-7.68 16.89-3.9 10.63-5.36 25.81.22 36.37-2.293-1.4-3.793-3.963-4.5-7.69-1.853-9.706-1.35-19.296 1.51-28.77 1.77-5.84 7.11-13.03 8.9-20.66ZM95.46 376.58 97 359.39a.475.475 0 0 0-.253-.46.476.476 0 0 0-.177-.05l-14.3-1.23a.472.472 0 0 1-.42-.53l.48-3.61a.468.468 0 0 1 .51-.4l34.32 2.97a.474.474 0 0 1 .321.165.471.471 0 0 1 .109.345l-.34 3.61a.473.473 0 0 1-.5.42l-15.24-1.26a.453.453 0 0 0-.183.02.452.452 0 0 0-.276.232.467.467 0 0 0-.051.178l-1.5 17.14a.47.47 0 0 0 .43.51l15.21 1.33a.474.474 0 0 1 .321.165.471.471 0 0 1 .109.345l-.34 3.6a.462.462 0 0 1-.165.321.485.485 0 0 1-.345.109l-34.42-3.06a.471.471 0 0 1-.43-.52l.44-3.55a.47.47 0 0 1 .51-.41l14.13 1.24a.475.475 0 0 0 .51-.43ZM582.6 384.641c-10.77-.24-10.93-20.88-1.8-20a1.815 1.815 0 0 1 1.614 1.467 1.814 1.814 0 0 1-.954 1.963c-10.38 5.37 2.3 19.2 4.03 9.25.467-2.66.94-5.32 1.42-7.98 1.49-8.22 12.07-6.92 14.05.62 1.48 5.61.55 10.62-5.67 12.64a.611.611 0 0 1-.508-.066.6.6 0 0 1-.272-.434l-.33-2.99c-.033-.347.117-.567.45-.66 4.78-1.25 3.43-8.21.58-10.39-1.64-1.25-3.54-.19-4.14 1.66-1.57 4.82-.68 15.09-8.47 14.92ZM513.63 373.131c.93.31 1.5.5 1.72 1.54a299.314 299.314 0 0 1 3.41 19c.053.38-.11.57-.49.57-40.034.013-80.037.017-120.01.01-7.46 0-16.48-2.53-22.25-9.17 6.18 4.58 13.01 6.873 20.49 6.88 39.753.047 79.456.057 119.11.03a1.023 1.023 0 0 0 .997-.762c.04-.146.048-.299.023-.448l-3-17.65ZM237.19 463.74c-.147-.02-.223.003-.23.07-.127 6.907-.187 13.8-.18 20.68.007 2.14.573 3.063 1.7 2.77l16.3-.05a.465.465 0 0 0 .332-.138.465.465 0 0 0 .138-.332v-24.49c0-.313.157-.47.47-.47a342.68 342.68 0 0 1 12 .01c1.393.027 2.403.497 3.03 1.41-.12.007-.223.017-.31.03-.147.027-.22.113-.22.26l.04 63.48a.71.71 0 0 1-.73.72l-14.06-.32-.22-24.35c-.007-.153-.08-.243-.22-.27a.945.945 0 0 0-.3-.01l.34-.28a.974.974 0 0 0 .283-1.075.968.968 0 0 0-.913-.635h-16.57c-.297 0-.582.119-.792.331-.21.212-.328.499-.328.799v25.1a.73.73 0 0 1-.72.73c-4 .1-8.073.077-12.22-.07-.187-.007-.463.133-.83.42-.76-.21-1.34-1.11-1.35-1.94-.187-21.22-.213-42.443-.08-63.67.007-.467.243-.7.71-.7h13.27c.152 0 .302.04.435.117a.914.914 0 0 1 .325.323l.9 1.55ZM314.76 463.679c-.247.154-.43.314-.55.48-.113.16-.133.384-.06.67 5.513 20.52 10.9 41.05 16.16 61.59.213.827-.107 1.254-.96 1.28-3.27.11-15.38 1.94-14.06-4.41.087-.406-.073-.59-.48-.55-.253.027-.467.207-.64.54l-2.13-8.88c.313.094.353-.19.12-.85a1.292 1.292 0 0 0-1.2-.86l-13.82-.2a.88.88 0 0 0-.554.186.917.917 0 0 0-.326.494l-3.51 14.08c-.073.28-.25.417-.53.41l-12.41-.25-2.08.13a.242.242 0 0 1-.122-.02.252.252 0 0 1-.152-.186.26.26 0 0 1 .004-.124l17.11-64.81c.107-.413.373-.62.8-.62l17.84-.09a.67.67 0 0 1 .517.244.656.656 0 0 1 .133.556c-.127.6.173.997.9 1.19Zm-14.44 37.27 8.51-.3c.367-.013.51-.2.43-.56l-4.36-20.14-.44-3.89a.6.6 0 0 0-1.19-.05l-4.78 24.29a.637.637 0 0 0 .061.421.597.597 0 0 0 .309.279c.787.327 1.273.31 1.46-.05ZM354.15 462.48l-.02 51.8c0 .347.17.564.51.65.693.18 1.087.157 1.18-.07l18.71.12a.908.908 0 0 1 .78.44c.28.454.42.99.42 1.61l.14 9.61a1.099 1.099 0 0 1-.312.784 1.092 1.092 0 0 1-.778.326h-32.06c-.3 0-.583-.063-.85-.19-.44-.2-.78-.073-1.02.38-.153-.286-.637-.443-1.45-.47-.433-.02-.65-.246-.65-.68v-64.5c0-.266.133-.41.4-.43 5.347-.38 10.347-.173 15 .62ZM415.78 463.69c.394 2.647.93 5.26 1.61 7.84 4.794 18.173 9.6 36.567 14.42 55.18a.787.787 0 0 1-.426.914.79.79 0 0 1-.354.076l-13.07-.25c-.9.133-1.45-.203-1.65-1.01a841.013 841.013 0 0 0-3.07-12.16c.46-.373.347-.77-.34-1.19-2.1-1.29-12.02-.47-14.83-.15-.326.04-.526.22-.6.54l-3.11 13.61c-.093.4-.343.597-.75.59l-12.09-.11-1.47.06a.913.913 0 0 1-.755-.341.914.914 0 0 1-.175-.809l16.91-64.3c.074-.287.257-.43.55-.43h18.12c.267 0 .444.123.53.37l.55 1.57Zm-14.13 37.32 8.61-.1c.367-.007.514-.187.44-.54l-4.36-20.99c.074-1.207-.203-2.42-.83-3.64a.337.337 0 0 0-.346-.173.344.344 0 0 0-.284.263l-4.9 23.93c-.056.265-.017.541.108.781.126.241.332.431.582.539.414.173.74.15.98-.07ZM456.72 463.411c-.687.126-1.053.573-1.1 1.34-.75 12.11-.24 24.2-.37 36.15-.047 4.506-.027 9.023.06 13.55a.759.759 0 0 0 .49.71c.667.26 1.167.17 1.5-.27 5.59.13 15.49-.97 20.02 1.12l-.33 10.88a.859.859 0 0 1-.86.84l-33.88-.11-1.4-.16c-.373-.047-.56-.257-.56-.63l-.12-64.37c0-.374.183-.574.55-.6 3.47-.23 13.42-.81 16 1.55Z" fill="#BDA180"/><path d="m354.15 462.48.99 1.35c.187.254.283.54.29.86l.39 50.17c-.093.227-.487.25-1.18.07-.34-.086-.51-.303-.51-.65l.02-51.8ZM270.75 463.199l1.14.84c.24.174.36.41.36.71v64.24c0 .327-.163.494-.49.5-4.04.02-8.053.027-12.04.02-2.14 0-2.73-.79-4.25-2.14l14.06.32a.704.704 0 0 0 .519-.204.71.71 0 0 0 .211-.516l-.04-63.48c0-.146.074-.233.22-.26.087-.013.19-.023.31-.03ZM456.72 463.41l.58 51.48c-.333.44-.833.53-1.5.27a.775.775 0 0 1-.356-.281.756.756 0 0 1-.134-.429 457.063 457.063 0 0 1-.06-13.55c.13-11.95-.38-24.04.37-36.15.047-.767.413-1.213 1.1-1.34ZM237.19 463.74c.32-.047.596.003.83.15.3.18.45.443.45.79l.01 22.58c-1.127.293-1.694-.63-1.7-2.77-.007-6.88.053-13.774.18-20.68.006-.067.083-.09.23-.07ZM314.76 463.68c.713.013 1.137.283 1.27.81 5.427 21.48 10.903 42.9 16.43 64.26a.645.645 0 0 1 .007.293.642.642 0 0 1-.627.517l-13.79-.02c-.36 0-.623-.164-.79-.49a4.553 4.553 0 0 0-1.68-1.79 1.264 1.264 0 0 1-.59-.8l-.82-3.18c.174-.334.387-.514.64-.54.407-.04.567.143.48.55-1.32 6.35 10.79 4.52 14.06 4.41.853-.027 1.173-.454.96-1.28a5410.503 5410.503 0 0 0-16.16-61.59c-.073-.287-.053-.51.06-.67.12-.167.303-.327.55-.48ZM415.78 463.689c.94.027 1.513.447 1.72 1.26 5.5 21.44 10.993 42.837 16.48 64.19a.507.507 0 0 1-.093.431.507.507 0 0 1-.397.189l-14.02-.06a.786.786 0 0 1-.73-.48l-.78-1.77 13.07.25a.782.782 0 0 0 .636-.301.781.781 0 0 0 .144-.689 12774.77 12774.77 0 0 0-14.42-55.18 72.532 72.532 0 0 1-1.61-7.84ZM304.9 479.95l-4.58 21c-.187.36-.673.376-1.46.05a.609.609 0 0 1-.309-.279.638.638 0 0 1-.061-.421l4.78-24.29a.598.598 0 0 1 1.008-.334c.106.101.17.238.182.384l.44 3.89ZM406.34 479.381l-4.69 21.63c-.24.22-.567.243-.98.07a1.188 1.188 0 0 1-.582-.539 1.163 1.163 0 0 1-.108-.781l4.9-23.93a.337.337 0 0 1 .284-.263.338.338 0 0 1 .346.173c.627 1.22.903 2.433.83 3.64ZM254.73 502.74l-15.69-.03c-.36-.007-.54.17-.54.53v25.64a.855.855 0 0 1-.88.86l-13.04-.32c-.32-.013-.58-.14-.78-.38l-.82-.98c.367-.287.644-.427.83-.42 4.147.147 8.22.17 12.22.07a.73.73 0 0 0 .72-.73v-25.1c0-.3.118-.587.329-.799.21-.212.494-.331.791-.331h16.57a.97.97 0 0 1 .63 1.71l-.34.28ZM312.04 514.4l-13.36-.08a.774.774 0 0 0-.75.6l-3.29 14.4a.606.606 0 0 1-.226.354.622.622 0 0 1-.404.126l-13.63-.31c-.413-.013-.613-.226-.6-.64l.03-1.44 12.41.25c.28.007.457-.13.53-.41l3.51-14.08a.911.911 0 0 1 .326-.494.878.878 0 0 1 .554-.186l13.82.2a1.292 1.292 0 0 1 1.2.86c.233.66.193.944-.12.85ZM413.24 514.279l-13.19.02c-.333 0-.54.16-.62.48l-3.18 13.52c-.22.947-.816 1.414-1.79 1.4l-12.96-.15a.564.564 0 0 1-.553-.506.544.544 0 0 1 .043-.264l.53-1.21 12.09.11c.407.007.657-.19.75-.59l3.11-13.61c.074-.32.274-.5.6-.54 2.81-.32 12.73-1.14 14.83.15.687.42.8.817.34 1.19ZM477.32 516.01l1.14 1.29c.161.18.25.415.25.66l.12 10.61c.013.813-.387 1.21-1.2 1.19-11.593-.287-23-.36-34.22-.22-.613.006-.98-.154-1.1-.48-.12-.334-.14-.814-.06-1.44l33.88.11a.858.858 0 0 0 .86-.84l.33-10.88ZM375.73 517.03c.453-.106.846-.086 1.18.06a.955.955 0 0 1 .59.88v11.02c0 .587-.297.87-.89.85a679.408 679.408 0 0 0-35.05-.23c-.82.014-1.057-.543-.71-1.67.24-.453.58-.58 1.02-.38.266.127.55.19.85.19h32.06a1.093 1.093 0 0 0 1.09-1.11l-.14-9.61ZM465.09 589.191a.688.688 0 0 1-.122-.506.669.669 0 0 1 .272-.444l11.74-8.53c3.47-2.52 7.923-3.387 12.378-2.412 4.456.975 8.55 3.713 11.382 7.612l2.05 2.81a20.119 20.119 0 0 1 3.094 6.35 18.46 18.46 0 0 1 .63 6.831c-.223 2.248-.879 4.379-1.929 6.272a14.639 14.639 0 0 1-4.195 4.757l-11.74 8.52a.688.688 0 0 1-.506.122.694.694 0 0 1-.444-.272l-22.61-31.11Zm6.86.71 17.25 23.76a.7.7 0 0 0 .98.15l7.55-5.48a9.75 9.75 0 0 0 2.853-3.284c.706-1.314 1.135-2.8 1.263-4.373a13.178 13.178 0 0 0-.517-4.796 14.728 14.728 0 0 0-2.219-4.487l-2.93-4.03c-2.009-2.765-4.88-4.731-7.98-5.466-3.099-.735-6.175-.179-8.55 1.546l-7.55 5.49a.701.701 0 0 0-.15.97ZM209.7 624.8c-14.01-12.85 2.53-40.88 20.07-35.11 8.72 2.87 13 10.76 11.1 19.83-.1.46-.356.574-.77.34l-3.52-2.03a.836.836 0 0 1-.41-.87c.84-4.7-.5-8.406-4.02-11.12-12.2-9.39-27.3 12.2-21.37 23.26 4.03 7.52 14.02 6.97 19.01.42.254-.326.557-.383.91-.17l3.67 2.22c.314.194.347.427.1.7-6.87 7.7-16.74 9.89-24.77 2.53ZM439.68 606.541l4.88 10.36a.523.523 0 0 0 .69.25l18.53-8.63a.52.52 0 0 1 .69.25l1.44 3.15a.518.518 0 0 1-.25.69l-18.53 8.66a.518.518 0 0 0-.25.69l5.34 11.37a.523.523 0 0 0 .69.25l20.11-9.41a.518.518 0 0 1 .69.24l1.56 3.12a.517.517 0 0 1-.24.71l-24.91 11.62a.52.52 0 0 1-.69-.25l-16.25-34.99a.518.518 0 0 1 .25-.69l23.99-11.22a.516.516 0 0 1 .68.24l1.53 3.1a.529.529 0 0 1 .022.402.512.512 0 0 1-.272.298l-19.45 9.1a.518.518 0 0 0-.25.69ZM253.21 620.251l19.79 6.83a.327.327 0 0 1 .218.285.333.333 0 0 1-.018.125l-1.31 3.66a.33.33 0 0 1-.163.186.344.344 0 0 1-.122.032.33.33 0 0 1-.125-.018l-19.75-6.76a.32.32 0 0 0-.4.2l-4.2 12.19a.32.32 0 0 0 .2.4l21.43 7.45a.32.32 0 0 1 .2.4l-1.22 3.66a.33.33 0 0 1-.163.186.344.344 0 0 1-.122.032.33.33 0 0 1-.125-.018l-26.29-9.05a.32.32 0 0 1-.2-.4l12.74-36.96a.316.316 0 0 1 .162-.175.317.317 0 0 1 .238-.015l25.4 8.83c.041.013.08.035.112.064.033.028.06.064.078.103.019.039.03.082.031.125a.31.31 0 0 1-.021.128l-1.35 3.59a.316.316 0 0 1-.162.175.317.317 0 0 1-.238.015l-20.51-7.06a.32.32 0 0 0-.4.2l-3.9 11.19a.317.317 0 0 0 .015.238.316.316 0 0 0 .175.162ZM420.936 608.435l-3.858 1.329a.51.51 0 0 0-.316.648l12.574 36.516a.51.51 0 0 0 .648.316l3.858-1.328a.51.51 0 0 0 .316-.649l-12.574-36.515a.51.51 0 0 0-.648-.317ZM386.45 623.011l2.81 11.12a.526.526 0 0 0 .236.32.511.511 0 0 0 .394.06l17.25-4.29a.518.518 0 0 1 .63.37l.84 3.35a.526.526 0 0 1-.193.553.524.524 0 0 1-.187.087l-17.3 4.28a.524.524 0 0 0-.393.434.53.53 0 0 0 .013.206l4.15 16.52a.518.518 0 0 1-.37.63l-3.92 1.04a.52.52 0 0 1-.64-.37l-9.35-37.5a.53.53 0 0 1 .055-.4.532.532 0 0 1 .325-.24l24.74-6.12a.518.518 0 0 1 .63.37l.92 3.3a.526.526 0 0 1-.193.553.524.524 0 0 1-.187.087l-19.89 5.01a.518.518 0 0 0-.37.63ZM290.01 638.52 287.3 654c-.087.487-.374.687-.86.6l-3.53-.59a.762.762 0 0 1-.5-.314.773.773 0 0 1-.13-.576l6.59-37.32c.106-.593.456-.843 1.05-.75A374.467 374.467 0 0 1 309 618.5c11.05 2.31 10.59 15.18 1.92 20.17-.32.18-.39.43-.21.75.55.95 1.63 1.59 2.08 2.48 1.63 3.19.17 8.41-.31 13.04-.034.334.013.657.14.97l1.1 2.56a.648.648 0 0 1-.091.654.644.644 0 0 1-.619.226l-5.06-.97c-.367-.066-.564-.286-.59-.66a35.906 35.906 0 0 1 .35-7.81c.84-5.39.7-8.59-5.2-9.65-5.88-1.046-9.827-1.78-11.84-2.2a.577.577 0 0 0-.428.09.566.566 0 0 0-.232.37Zm2.93-17.24-1.91 11.14a1.19 1.19 0 0 0 .541 1.222c.134.085.283.142.439.168l11.91 2.03a7.488 7.488 0 0 0 2.716-.031 7.049 7.049 0 0 0 2.469-.994 6.437 6.437 0 0 0 1.845-1.804 6.02 6.02 0 0 0 .94-2.341l.13-.81c.286-1.682-.162-3.419-1.248-4.829-1.086-1.41-2.719-2.378-4.542-2.691l-11.91-2.04a1.198 1.198 0 0 0-1.38.98ZM369.783 619.672l-4.203.368a.419.419 0 0 0-.382.455l3.383 38.672a.42.42 0 0 0 .455.382l4.204-.368a.42.42 0 0 0 .382-.455l-3.384-38.672a.419.419 0 0 0-.455-.382ZM337.9 625.481l-12.11-.45a.41.41 0 0 1-.39-.41l.05-3.74a.397.397 0 0 1 .131-.291.419.419 0 0 1 .138-.085.42.42 0 0 1 .161-.024l30.32 1.14a.402.402 0 0 1 .292.141.419.419 0 0 1 .098.309l-.33 3.61a.41.41 0 0 1-.43.37l-12.05-.51a.412.412 0 0 0-.42.39l-1.23 34.51a.403.403 0 0 1-.041.16.405.405 0 0 1-.409.23l-4.21-.4a.408.408 0 0 1-.37-.43l1.2-34.1a.427.427 0 0 0-.027-.158.426.426 0 0 0-.217-.227.399.399 0 0 0-.156-.035Z" fill="#BDA180"/></svg>