<svg id="Icon_ISO_01" data-name="Icon ISO 01" xmlns="http://www.w3.org/2000/svg" width="162" height="162"><defs><style>.cls-1,.cls-3{fill:none;stroke:#bda180;opacity:.5}.cls-1{stroke-width:2px}.cls-3{stroke-width:1px}.cls-4{fill-rule:evenodd;fill:#bda180}</style></defs><circle class="cls-1" cx="81" cy="81" r="80"/><circle id="Ellipse_2_copy_3" data-name="Ellipse 2 copy 3" class="cls-1" cx="81" cy="81" r="53.344"/><path d="m147 380.226 5.33 5.33-5.33 5.329-5.33-5.329Z" transform="translate(-66 -269)" style="fill-rule:evenodd;stroke-width:1px;fill:none;stroke:#bda180;opacity:.5"/><circle class="cls-3" cx="15.219" cy="81" r="2.656"/><circle id="Ellipse_3_copy" data-name="Ellipse 3 copy" class="cls-3" cx="146.781" cy="81" r="2.656"/><path id="Certified" class="cls-4" d="M93.083 315.873a3.089 3.089 0 0 1 .071.5 2.142 2.142 0 0 1-.029.483 2.522 2.522 0 0 1-.145.5 4.311 4.311 0 0 1-.274.553 2.668 2.668 0 0 1-.7.8 2.371 2.371 0 0 1-.929.43 2.815 2.815 0 0 1-1.1.01 3.666 3.666 0 0 1-1.206-.46 3.786 3.786 0 0 1-1-.8 2.741 2.741 0 0 1-.545-.953 2.367 2.367 0 0 1-.091-1.03 2.785 2.785 0 0 1 .365-1.04 2.708 2.708 0 0 1 .985-1.032 3.58 3.58 0 0 1 .382-.2.43.43 0 0 0 .208-.151.241.241 0 0 0 .038-.135.279.279 0 0 0-.035-.116l-.24-.533a3.614 3.614 0 0 0-1.164.6 3.689 3.689 0 0 0-.947 1.115 3.928 3.928 0 0 0-.514 1.459 3.421 3.421 0 0 0 .1 1.424 3.617 3.617 0 0 0 .688 1.282 4.448 4.448 0 0 0 1.235 1.029 4.632 4.632 0 0 0 1.5.567 3.61 3.61 0 0 0 1.437-.019 3.276 3.276 0 0 0 1.267-.592 3.774 3.774 0 0 0 .995-1.149 3.9 3.9 0 0 0 .547-1.554 3.268 3.268 0 0 0-.164-1.41l-.589.134a.2.2 0 0 0-.135.094.276.276 0 0 0-.021.2Zm3.786-14.621 5.317 5.49 3.383-3.276-.582-.609-2.644 2.56-1.814-1.873 2.138-2.071-.564-.582-2.138 2.07-1.765-1.823 2.639-2.557-.586-.605Zm18.56-8.588a.707.707 0 0 1 .31-.1.594.594 0 0 1 .259.069l3.044 1.458a.454.454 0 0 0 .47 0l.807-.437-3.405-1.609a1.2 1.2 0 0 0-.455-.123 2.763 2.763 0 0 0 .556-.637 2.287 2.287 0 0 0 .293-.7 2 2 0 0 0 .025-.732 2.207 2.207 0 0 0-.248-.728 2.253 2.253 0 0 0-.562-.693 1.7 1.7 0 0 0-.767-.346 2.376 2.376 0 0 0-.969.042 4.7 4.7 0 0 0-1.172.467l-1.9 1.027 3.636 6.723.905-.49-1.517-2.805Zm-2.42-2.826.991-.538a2.181 2.181 0 0 1 1.347-.335 1.221 1.221 0 0 1 .884.693 1.547 1.547 0 0 1 .189.595 1.28 1.28 0 0 1-.081.586 1.608 1.608 0 0 1-.359.546 2.615 2.615 0 0 1-.645.473l-.957.518Zm15.615-7.355.192.848 2.419-.546 1.492 6.606 1-.226-1.492-6.607 2.414-.546-.192-.848Zm20.469-2.347-1.034-.023-.17 7.641 1.035.023Zm14.341 1.885-2.008 7.374 1 .272.863-3.17 3.031.825.222-.813-3.031-.825.7-2.578 3.545.965.222-.813Zm18.17 7.239-.9-.506-3.74 6.665.9.506Zm11.764 8.4-5.239 5.565 3.429 3.228.581-.61-2.679-2.522 1.788-1.9 2.167 2.039.555-.59-2.167-2.04 1.74-1.848 2.676 2.519.578-.614Zm13.649 20.965a3.505 3.505 0 0 0 .653-1.274 3.4 3.4 0 0 0 .068-1.422 4.161 4.161 0 0 0-.542-1.466L205.751 312l-6.591 3.87 1.445 2.461a4.145 4.145 0 0 0 1.016 1.187 3.411 3.411 0 0 0 1.273.635 3.45 3.45 0 0 0 1.428.052 4.62 4.62 0 0 0 2.695-1.581Zm-2.93.582a2.619 2.619 0 0 1-1.083 0 2.33 2.33 0 0 1-.935-.44 2.973 2.973 0 0 1-.742-.863l-.921-1.569 5.147-3.021.92 1.568a2.972 2.972 0 0 1 .393 1.068 2.33 2.33 0 0 1-.074 1.033 2.66 2.66 0 0 1-.534.945 4.21 4.21 0 0 1-2.171 1.278Z" transform="translate(-66 -269)"/><path id="COMPANY" class="cls-4" d="M89.949 390.049a3.065 3.065 0 0 1-.478-.164 2.145 2.145 0 0 1-.416-.244 2.531 2.531 0 0 1-.381-.357 4.282 4.282 0 0 1-.369-.5 2.661 2.661 0 0 1-.4-.985 2.364 2.364 0 0 1 .038-1.023 2.809 2.809 0 0 1 .489-.985 3.68 3.68 0 0 1 .957-.866 3.78 3.78 0 0 1 1.168-.523 2.742 2.742 0 0 1 1.1-.054 2.361 2.361 0 0 1 .959.385 2.782 2.782 0 0 1 .762.8 2.7 2.7 0 0 1 .473 1.346 3.566 3.566 0 0 1 0 .43.426.426 0 0 0 .041.254.241.241 0 0 0 .1.1.268.268 0 0 0 .119.021l.584.028a3.628 3.628 0 0 0 0-1.308 3.713 3.713 0 0 0-.565-1.35 3.931 3.931 0 0 0-1.067-1.119 3.409 3.409 0 0 0-1.317-.554 3.63 3.63 0 0 0-1.454.031 4.459 4.459 0 0 0-1.477.635 4.607 4.607 0 0 0-1.186 1.081 3.622 3.622 0 0 0-.635 1.29 3.281 3.281 0 0 0-.047 1.4 3.777 3.777 0 0 0 .574 1.408 3.882 3.882 0 0 0 1.136 1.192 3.27 3.27 0 0 0 1.331.494l.148-.586a.2.2 0 0 0-.023-.163.276.276 0 0 0-.166-.108Zm19.328 13.929a3.634 3.634 0 0 0 .158-1.448 3.449 3.449 0 0 0-.441-1.371 4.247 4.247 0 0 0-2.422-1.894 3.452 3.452 0 0 0-1.435-.1 3.646 3.646 0 0 0-1.367.5 4.7 4.7 0 0 0-1.942 2.482 3.609 3.609 0 0 0-.156 1.446 3.44 3.44 0 0 0 .442 1.365 4.282 4.282 0 0 0 2.422 1.894 3.436 3.436 0 0 0 1.434.1 3.611 3.611 0 0 0 1.365-.5 4.7 4.7 0 0 0 1.942-2.474Zm-2.521 1.63a2.664 2.664 0 0 1-1.01.408 2.327 2.327 0 0 1-1.037-.059 3.146 3.146 0 0 1-1.76-1.377 2.351 2.351 0 0 1-.309-.994 2.627 2.627 0 0 1 .151-1.08 3.856 3.856 0 0 1 .625-1.112 3.9 3.9 0 0 1 .93-.877 2.652 2.652 0 0 1 1.014-.409 2.389 2.389 0 0 1 1.041.059 3.105 3.105 0 0 1 1.76 1.377 2.355 2.355 0 0 1 .306.994 2.678 2.678 0 0 1-.155 1.081 4.253 4.253 0 0 1-1.556 1.989Zm19.25 9.5-1.087-5.284a.306.306 0 0 0-.092-.186.662.662 0 0 0-.195-.09l-.726-.232-2.321 7.282.864.275 1.7-5.35a5.183 5.183 0 0 0 .127-.503l1.095 5.381a.4.4 0 0 0 .283.342l.142.046a.4.4 0 0 0 .428-.116l3.947-3.758a6.4 6.4 0 0 0-.173.472l-1.7 5.35.864.276 2.32-7.282-.726-.232a.707.707 0 0 0-.214-.04.283.283 0 0 0-.18.1l-3.9 3.69a2.653 2.653 0 0 0-.2.218 7.446 7.446 0 0 0-.194.238l-.027-.3c-.008-.1-.02-.2-.035-.293Zm23.117 3.153a3.827 3.827 0 0 0 1.218-.216 2.518 2.518 0 0 0 .875-.525 2.1 2.1 0 0 0 .524-.779 2.486 2.486 0 0 0 .157-.981 2.636 2.636 0 0 0-.2-.97 1.928 1.928 0 0 0-.547-.731 2.427 2.427 0 0 0-.9-.45 4.229 4.229 0 0 0-1.266-.13l-2.255.068.23 7.639 1.029-.031-.088-2.855Zm-1.346-3.929 1.226-.037a1.97 1.97 0 0 1 1.38.369 1.466 1.466 0 0 1 .485 1.127 1.731 1.731 0 0 1-.1.649 1.346 1.346 0 0 1-.334.514 1.628 1.628 0 0 1-.56.345 2.393 2.393 0 0 1-.778.141l-1.226.037Zm21.117-4.693-.984.352-.3 8.225.753-.269a.341.341 0 0 0 .186-.146.38.38 0 0 0 .058-.2l.051-1.978 3.229-1.156 1.294 1.5a.428.428 0 0 0 .18.122.343.343 0 0 0 .235-.01l.753-.269Zm-.134 1.855v-.343c0-.128-.016-.263-.029-.406.083.118.163.227.239.328a3.322 3.322 0 0 0 .216.263l2.177 2.523-2.686.962Zm16.007-10.366-.416.335 4.79 5.955.706-.568-3.412-4.243a5.59 5.59 0 0 0-.327-.373l7.051 1.713a.514.514 0 0 0 .217.011.446.446 0 0 0 .187-.1l.4-.324-4.789-5.956-.707.568 3.393 4.219c.049.061.1.124.161.188s.12.131.184.2l-7.052-1.713a.918.918 0 0 0-.118-.019.376.376 0 0 0-.091 0 .3.3 0 0 0-.083.033.686.686 0 0 0-.1.067Zm17.648-19.9-.49.769a.326.326 0 0 0-.054.225.582.582 0 0 0 .068.2l1.571 3.066c.071.12.139.231.2.331s.132.2.2.286c-.111-.024-.226-.044-.345-.059s-.249-.028-.388-.041l-3.445-.117a.564.564 0 0 0-.221.024.331.331 0 0 0-.174.148l-.486.765 5.382.1 2.57 1.634.555-.873-2.57-1.634Z" transform="translate(-66 -269)"/><path id="_9001.2008" data-name="9001.201" class="cls-4" d="M112.408 363.966h.729a.557.557 0 0 0 .244-.051.407.407 0 0 0 .165-.136l1.551-2.24c.115-.162.219-.322.311-.477a3.428 3.428 0 0 0 .233-.471 2.817 2.817 0 0 0 .147-.485 2.568 2.568 0 0 0 .051-.522 2.332 2.332 0 0 0-.144-.836 1.826 1.826 0 0 0-1.051-1.071 2.213 2.213 0 0 0-.832-.151 2.242 2.242 0 0 0-.848.156 2.044 2.044 0 0 0-.667.426 1.934 1.934 0 0 0-.436.636 2.115 2.115 0 0 0-.011 1.562 1.7 1.7 0 0 0 .389.573 1.636 1.636 0 0 0 .567.354 1.938 1.938 0 0 0 .682.12 2.046 2.046 0 0 0 .649-.1 1.8 1.8 0 0 0 .551-.3c-.05.077-.1.154-.16.231s-.117.158-.182.244Zm2.582-4a1.186 1.186 0 0 1-.258.4 1.248 1.248 0 0 1-.415.277 1.437 1.437 0 0 1-.567.105 1.512 1.512 0 0 1-.522-.085 1.054 1.054 0 0 1-.4-.248 1.092 1.092 0 0 1-.248-.4 1.561 1.561 0 0 1-.087-.54 1.391 1.391 0 0 1 .093-.515 1.145 1.145 0 0 1 .267-.4 1.25 1.25 0 0 1 .413-.264 1.512 1.512 0 0 1 1.047 0 1.167 1.167 0 0 1 .4.26 1.193 1.193 0 0 1 .265.412 1.471 1.471 0 0 1 .095.54 1.283 1.283 0 0 1-.083.454Zm9.669-.627a3.064 3.064 0 0 0-.491-1.016 1.967 1.967 0 0 0-.736-.6 2.2 2.2 0 0 0-1.817 0 1.978 1.978 0 0 0-.732.6 3.023 3.023 0 0 0-.488 1.016 5.979 5.979 0 0 0 0 2.9 3 3 0 0 0 .488 1.011 1.992 1.992 0 0 0 .732.595 2.2 2.2 0 0 0 1.817 0 1.98 1.98 0 0 0 .736-.595 3.036 3.036 0 0 0 .491-1.011 5.914 5.914 0 0 0 0-2.904Zm-.764 2.671a2.491 2.491 0 0 1-.329.8 1.241 1.241 0 0 1-.478.433 1.282 1.282 0 0 1-1.129 0 1.23 1.23 0 0 1-.476-.433 2.492 2.492 0 0 1-.326-.8 6.2 6.2 0 0 1 0-2.447 2.479 2.479 0 0 1 .326-.8 1.233 1.233 0 0 1 .476-.434 1.282 1.282 0 0 1 1.129 0 1.244 1.244 0 0 1 .478.434 2.478 2.478 0 0 1 .329.8 6.2 6.2 0 0 1 .005 2.443Zm9.475-2.671a3.064 3.064 0 0 0-.491-1.016 1.967 1.967 0 0 0-.736-.6 2.137 2.137 0 0 0-.909-.2 2.113 2.113 0 0 0-.908.2 1.978 1.978 0 0 0-.732.6 3.023 3.023 0 0 0-.488 1.016 5.979 5.979 0 0 0 0 2.9 3 3 0 0 0 .488 1.011 1.992 1.992 0 0 0 .732.595 2.113 2.113 0 0 0 .908.2 2.137 2.137 0 0 0 .909-.2 1.98 1.98 0 0 0 .736-.595 3.036 3.036 0 0 0 .491-1.011 5.914 5.914 0 0 0 0-2.904Zm-.764 2.671a2.491 2.491 0 0 1-.329.8 1.241 1.241 0 0 1-.478.433 1.282 1.282 0 0 1-1.129 0 1.23 1.23 0 0 1-.476-.433 2.492 2.492 0 0 1-.326-.8 6.2 6.2 0 0 1 0-2.447 2.479 2.479 0 0 1 .326-.8 1.233 1.233 0 0 1 .476-.434 1.282 1.282 0 0 1 1.129 0 1.244 1.244 0 0 1 .478.434 2.478 2.478 0 0 1 .329.8 6.2 6.2 0 0 1 0 2.443Zm5.877 1.96h3.417v-.6h-1.254v-5.778H140l-1.9 1.64.249.342a.228.228 0 0 0 .064.058.236.236 0 0 0 .091.035.277.277 0 0 0 .107 0 .249.249 0 0 0 .116-.06l1.133-.973a6.12 6.12 0 0 0-.013.395v4.343h-1.365v.6Zm8.136-.269a.564.564 0 0 0 .115.176.539.539 0 0 0 .176.118.565.565 0 0 0 .613-.118.6.6 0 0 0 .12-.176.528.528 0 0 0 .045-.22.539.539 0 0 0-.045-.218.577.577 0 0 0-.12-.177.548.548 0 0 0-.178-.12.553.553 0 0 0-.611.12.547.547 0 0 0-.115.177.554.554 0 0 0-.043.218.543.543 0 0 0 .043.219Zm6.984-6.053a1.917 1.917 0 0 0-.624.344 1.855 1.855 0 0 0-.454.563 2.311 2.311 0 0 0-.242.771l.413.071a.412.412 0 0 0 .256-.029.352.352 0 0 0 .144-.207 1.216 1.216 0 0 1 .151-.382 1.172 1.172 0 0 1 .265-.3 1.23 1.23 0 0 1 .362-.2 1.368 1.368 0 0 1 .449-.071 1.422 1.422 0 0 1 .449.069 1 1 0 0 1 .362.207.962.962 0 0 1 .242.349 1.24 1.24 0 0 1 .089.491 1.674 1.674 0 0 1-.08.526 2.294 2.294 0 0 1-.226.487 3.54 3.54 0 0 1-.356.478c-.139.158-.293.324-.462.5l-2.04 2.049a.471.471 0 0 0-.111.165.459.459 0 0 0-.036.173v.271h4.246v-.48a.261.261 0 0 0-.076-.195.272.272 0 0 0-.2-.076h-2.134a2.265 2.265 0 0 0-.351.029 3.116 3.116 0 0 0-.36.078l1.68-1.716c.177-.178.346-.354.5-.529a4.38 4.38 0 0 0 .42-.538 2.575 2.575 0 0 0 .289-.58 1.978 1.978 0 0 0 .107-.66 1.809 1.809 0 0 0-.147-.746 1.625 1.625 0 0 0-.405-.558 1.747 1.747 0 0 0-.608-.349 2.322 2.322 0 0 0-.756-.12 2.36 2.36 0 0 0-.759.111Zm11.553 1.691a3.045 3.045 0 0 0-.491-1.016 1.956 1.956 0 0 0-.735-.6 2.206 2.206 0 0 0-1.818 0 1.967 1.967 0 0 0-.731.6 3.005 3.005 0 0 0-.489 1.016 5.979 5.979 0 0 0 0 2.9 2.978 2.978 0 0 0 .489 1.011 1.981 1.981 0 0 0 .731.595 2.206 2.206 0 0 0 1.818 0 1.97 1.97 0 0 0 .735-.595 3.017 3.017 0 0 0 .491-1.011 5.914 5.914 0 0 0 0-2.904Zm-.764 2.671a2.468 2.468 0 0 1-.329.8 1.241 1.241 0 0 1-.478.433 1.282 1.282 0 0 1-1.129 0 1.22 1.22 0 0 1-.475-.433 2.469 2.469 0 0 1-.327-.8 6.2 6.2 0 0 1 0-2.447 2.456 2.456 0 0 1 .327-.8 1.223 1.223 0 0 1 .475-.434 1.282 1.282 0 0 1 1.129 0 1.244 1.244 0 0 1 .478.434 2.455 2.455 0 0 1 .329.8 6.2 6.2 0 0 1 0 2.443Zm9.475-2.671a3.045 3.045 0 0 0-.491-1.016 1.956 1.956 0 0 0-.735-.6 2.206 2.206 0 0 0-1.818 0 1.967 1.967 0 0 0-.731.6 3.005 3.005 0 0 0-.489 1.016 5.979 5.979 0 0 0 0 2.9 2.978 2.978 0 0 0 .489 1.011 1.981 1.981 0 0 0 .731.595 2.206 2.206 0 0 0 1.818 0 1.97 1.97 0 0 0 .735-.595 3.017 3.017 0 0 0 .491-1.011 5.914 5.914 0 0 0 0-2.904Zm-.764 2.671a2.468 2.468 0 0 1-.329.8 1.241 1.241 0 0 1-.478.433 1.282 1.282 0 0 1-1.129 0 1.22 1.22 0 0 1-.475-.433 2.469 2.469 0 0 1-.327-.8 6.2 6.2 0 0 1 0-2.447 2.456 2.456 0 0 1 .327-.8 1.223 1.223 0 0 1 .475-.434 1.282 1.282 0 0 1 1.129 0 1.244 1.244 0 0 1 .478.434 2.455 2.455 0 0 1 .329.8 6.2 6.2 0 0 1-.003 2.443Zm8.215 1.905a2 2 0 0 0 .678-.363 1.644 1.644 0 0 0 .44-.571 1.75 1.75 0 0 0 .158-.753 1.563 1.563 0 0 0-.32-1.011 1.753 1.753 0 0 0-.916-.567 1.545 1.545 0 0 0 .756-.558 1.513 1.513 0 0 0 .258-.886 1.584 1.584 0 0 0-.138-.658 1.567 1.567 0 0 0-.391-.533 1.833 1.833 0 0 0-.609-.356 2.471 2.471 0 0 0-1.576 0 1.828 1.828 0 0 0-.606.356 1.57 1.57 0 0 0-.392.533 1.6 1.6 0 0 0-.137.658 1.446 1.446 0 0 0 1.013 1.444 1.753 1.753 0 0 0-.916.567 1.563 1.563 0 0 0-.32 1.011 1.764 1.764 0 0 0 .156.753 1.609 1.609 0 0 0 .44.571 2.03 2.03 0 0 0 .68.363 3.073 3.073 0 0 0 1.742-.004Zm-1.429-.592a1.178 1.178 0 0 1-.417-.244 1.047 1.047 0 0 1-.263-.378 1.271 1.271 0 0 1-.091-.486 1.318 1.318 0 0 1 .109-.563 1.045 1.045 0 0 1 .293-.38 1.227 1.227 0 0 1 .425-.215 1.861 1.861 0 0 1 1 0 1.227 1.227 0 0 1 .425.215 1.045 1.045 0 0 1 .293.38 1.318 1.318 0 0 1 .109.563 1.252 1.252 0 0 1-.091.486 1.057 1.057 0 0 1-.262.378 1.183 1.183 0 0 1-.418.244 1.833 1.833 0 0 1-1.112-.004Zm.027-3.066a.957.957 0 0 1-.558-.616 1.456 1.456 0 0 1-.062-.422 1.182 1.182 0 0 1 .073-.418.975.975 0 0 1 .218-.342 1.006 1.006 0 0 1 .36-.231 1.513 1.513 0 0 1 1 0 1.006 1.006 0 0 1 .36.231.975.975 0 0 1 .218.342 1.182 1.182 0 0 1 .073.418 1.456 1.456 0 0 1-.062.422.957.957 0 0 1-.558.616 1.532 1.532 0 0 1-1.062-.004Z" transform="translate(-66 -269)"/><path id="ISO" class="cls-4" d="M126.91 330.055h-.916v12.578h.916v-12.578Zm18.924 1.12a4.192 4.192 0 0 0-1.417-.951 4.7 4.7 0 0 0-1.756-.311 4.154 4.154 0 0 0-1.551.271 3.459 3.459 0 0 0-1.142.72 3.027 3.027 0 0 0-.7 1.035 3.194 3.194 0 0 0-.24 1.218 2.975 2.975 0 0 0 .271 1.347 2.694 2.694 0 0 0 .715.9 4 4 0 0 0 1.009.591q.564.231 1.16.418t1.16.382a4.625 4.625 0 0 1 1.009.484 2.352 2.352 0 0 1 .716.72 2.04 2.04 0 0 1 .271 1.1 3.075 3.075 0 0 1-.214 1.151 2.621 2.621 0 0 1-.617.929 2.911 2.911 0 0 1-.992.618 3.678 3.678 0 0 1-1.333.226 4.021 4.021 0 0 1-.969-.106 4.131 4.131 0 0 1-.755-.262 3.565 3.565 0 0 1-.578-.338c-.166-.122-.308-.234-.427-.338l-.3-.262a.358.358 0 0 0-.2-.107.315.315 0 0 0-.249.133l-.249.392a5.051 5.051 0 0 0 1.573 1.2 4.83 4.83 0 0 0 2.142.44 4.572 4.572 0 0 0 1.707-.3 3.681 3.681 0 0 0 1.262-.813 3.478 3.478 0 0 0 .787-1.213 4.075 4.075 0 0 0 .271-1.489 2.776 2.776 0 0 0-.271-1.294 2.713 2.713 0 0 0-.716-.875 4.164 4.164 0 0 0-1.009-.591q-.564-.236-1.16-.431t-1.16-.4a4.633 4.633 0 0 1-1.008-.493 2.451 2.451 0 0 1-.716-.711 1.909 1.909 0 0 1-.271-1.058 2.451 2.451 0 0 1 .182-.934 2.287 2.287 0 0 1 .533-.782 2.51 2.51 0 0 1 .872-.533 3.895 3.895 0 0 1 2.355-.027 3.963 3.963 0 0 1 .778.369 3.8 3.8 0 0 1 .493.365.516.516 0 0 0 .3.164.25.25 0 0 0 .231-.151Zm22.818 2.529a5.893 5.893 0 0 0-1.227-2.031 5.384 5.384 0 0 0-1.9-1.3 6.313 6.313 0 0 0-2.44-.458 6.242 6.242 0 0 0-2.436.462 5.466 5.466 0 0 0-1.893 1.3 5.847 5.847 0 0 0-1.227 2.027 8.211 8.211 0 0 0 0 5.28 5.847 5.847 0 0 0 1.227 2.027 5.414 5.414 0 0 0 1.893 1.3 6.718 6.718 0 0 0 4.876 0 5.411 5.411 0 0 0 1.9-1.3 5.847 5.847 0 0 0 1.227-2.027 8.211 8.211 0 0 0 0-5.284Zm-.871 5a5.064 5.064 0 0 1-1.031 1.774 4.405 4.405 0 0 1-1.6 1.111 5.735 5.735 0 0 1-4.116 0 4.437 4.437 0 0 1-1.6-1.111 5.065 5.065 0 0 1-1.04-1.774 7.773 7.773 0 0 1 0-4.733 5.065 5.065 0 0 1 1.04-1.778 4.472 4.472 0 0 1 1.6-1.115 5.666 5.666 0 0 1 4.116 0 4.44 4.44 0 0 1 1.6 1.115 5.064 5.064 0 0 1 1.031 1.778 7.875 7.875 0 0 1 0 4.737Z" transform="translate(-66 -269)"/></svg>